<svg data-name="FG" xmlns="http://www.w3.org/2000/svg" viewBox="0 0 420 420"><defs><clipPath id="a"><path fill="none" d="M0 0h420v420H0z"/></clipPath></defs><g clip-path="url(#a)" fill="none"><g fill="#2f5e59"><path d="M197.35 415.05c0-.07-.3-1.5-.3-1.5l-.68-.2.54-.97-.61-.82-1.14.05-.16 1.03-1.19-.26.91-.79-.42-.33h-2.2l-.75 1.26s.51 1.61.51 1.71 1.66-1.73 1.66-1.73l.77.25-.75 1.49 1.08.56v-2.13l.77.93 1.01.07-.21 1.78s1.17-.33 1.17-.4zm28.07.51l1.45-.65 2.97.28.23-1.03-3.84-1.71.64-.59-.2-.59s-1.99-.22-1.99.16 1 .62 1 .62l.68-.19-.34.59-1.71.91s.15 1.37.14 1.52c-.02.16.98.68.98.68zm91.15-331.51l-.87 1.07-1.37.24-.08 1.61-.62 1.09 2.04 2.58.29 1.63-1.13 1.43.53 1.77.98.29 1.23-.93.26-1.47.87-.14.29-.67 1.88.71 1.65-.59-1.91-1.53-.63-1.02-1.67-.09-1.53-1.69 1.79-2.2 1.93 1.03.31 1.25.74.04 3.99-2.77 2.72 1.38 2.87 2.13 2.16.23 1.33 1.93 1.07-.38.15-2.91 4.92-5.33 3.02.53.35-.79 1.04.3 1.37-1.48 2.24-.13.12-1.12 1.35-.79-.6-.41-1.55 1.1-1.2-1.92-1.15-1.8 2.02-4.3-.53-.52-3.16 3.44-2.72-.2-.19-1.13-4.09-1.26-3.77-2.8-2.67-3.49-3.2-4.13-1.05 1.06-1.04-.18-.43 2.34 1.33 2.98-.32 2.72-.54.9-.32 3.71-1.52.72-.12 1.05.6 2.95-.99 1.13-1.36-.07-.04-.5-1.37.18-1.85-1.59-1.27.56 1.04 2.78-1.2 1.74-.42-.27z"/><path d="M203.37 399.68l1.37-2.74 1.68-.81 1.74-3.35h.69l.37-.82-.68-.25-.25-1.06-1.18-.44-1.56 1.43-.06.81-1.62.32-.12.99.5.56-1.74.12-.12.93-3.61 1.74-5.73-1.56-1.56 1.18-1.68-1.31-3.49-.31-1 .44-.56-.87-2.55.68-1-1.25.5-.44-1.68.37-.93-.87-1.49.06-.69 2.37-.81.25-.5 1.31-1.74-.31.25-1.25-1.18.19v1.12l-1 .69-.31 1.49-1.37.37-.68 2.31.68.56-.37 1.06-1.12-.62v.62l1.12.44-.12 2.8.44 1.74-1.43-.68-2.24 3.99v4.61l.5.43-1.43.75-.87 2.62.5.25-1.93 1.31h-.81v1.37l.87.37-.87 1.74.56 3.11h2.43l.58-.75 1.66.75-.62.93s1 2.06 1.12 2.37c.12.31 0 4.61 0 4.61l-.87.75.69.87-1.62 3.74 2.99 2.68 1.56-1.49 1.43.12 1.93-.37.56 1-1.25-4.3-.06-1.12.62-.44.44-1.43-.81-.5-.12-5.36.56-.31.19-4.05-2.06-1.68 4.86-2.68 1.81.81-.5.81.5.75v1.81l-1.93 2.12 3.43 2.93.56-.19.31.68 1.43.44v1.25l-.44.31s-.56 2.37-.56 2.62 1.25 1.74 1.25 1.74l3.12-.06-.56-1.99 4.36-1 1 .56.93-.87v-1.93h-1.31l-.81-1.74-1.31-1.06-1.68-.75 1-.44-.37-1.25 1.74 1.31.06-.87-1.43-1.12 1.12-.44.12-.93-1.43-.44s.5-.81.37-1c-.13-.19-2.06-1.18-2.06-1.18l-.25-1.56-1.74-2.62-1.93-.06-.93-1.25-.06-1.37 1.18 1.31 1.43-.5 1-1.5 3.61-1 2.86-4.42 2.12-.19 1.62 1 1.56-1.99-1.87-1.49-3.55.31 1.25 1.12-1.93.06h-4.3l.19 1.12-2.49.06-.87-1.12-2.62 2.37-.37 1.87-3.74.06-1.06-3.18-1.74-.5-1.81-2.68.37-4.55 3.49-2.99 2.74.93 1.81.06 1.62-.37 2.49.44 2.18-.44 7.54-.31 1.31 1.37 1.37.25 1.12.38 5.86-1.43z"/><path d="M184.79 405.56l-.17.29h-1.06l-.65 1.13h.62l.22-.67 1.11.47v-1.06l1.76.19.18-.66h-1.83l-.18.31zm164.58-100.53l-.65.56v1.54s.42.05.51 0c.09-.05-.14-1.53-.14-1.53h1.21l.61-1.23-.79-.33-.75.98zM324.74-4.25c-.45.22-.79 1.13-.79 1.13l.68 5.3 2.7 3.27 1.13 1.47-.51 1.69-1.07 1.47-.23 3.04 1.29 3.49-1.12 3.66.45.79.23 1.41-.68 1.92-.51 2.08-1.58.68.56 3.49.84 2.7 1.24.9-.11 2.65-1.92 2.14.39 2.03 1.01 1.75-.56 2.48-1.18 2.76.11 2.48.11 2.65 1.27 1.77 1.94-.84.68-3.21 1.94-3.3 1.69.34v1.61l2.54-.25.68 2.37 1.35.76.51-2.96-1.52-2.28-1.94-.84-.08-3.13-1.86-2.2-1.54-1.77v-3.97l1.87-3.3.34-2.7.68-1.1.08-2.7 1.61-.85 2.87-.25 2.37.93 1.86 1.94.93-.25-.42-4.06-3.04-4.14-.08-3.21-1.1-3.13-.76-6.25-2.54-4.31-1.27-1.1.59-5.24 1.18-.76.25-5.75-2.11-4.01-1.52-3.85 1.04-1.27v-1.61l-1.78-1.01h-3.59v1.35l2.59 1.69 1 2.82-1.8.45v1.42l-.9 2.18-1.58-2.18-2.93 1.06v2.14l1.01 1.69-.34 3.61s-.23 2.03-.68 2.25zm33.63 71.69l-.93-2.12-3.3 2.29-3.21 3.72-.69 2.54s2.47-1.44 2.47-1.78 4.14-3.72 4.14-3.72l1.52-.93zm-3.3 226.28l.37 1.4.61-.32-.35-.7-.03-.38h-.6zM320.9 62.25l.99 1.29.32-1.35-.92-.29-.39.35zm30.8 238.2l.61.75 1.03-.73-.42-.72-1.22.7zM323.44 64.86l-.51-.96-.79.83.59.59.71-.46zM96.72 391.67v-1.28l-1.47-.47.76-2.08.97-.84.46 1.57 1.46 1.16 1.85.22.98-.7 1.23 1.53 2.67.74v-.42l1.07-.47.24-1.26.49-1.55-1.19-2.59 1.49.19.17-2.63 1.2-.82.56.78 1.49-1.21 2.55-.07 6.31-1.53 2.8-2.21.55-1.93 3.67-3.83.13-2.62 1.02-.12 2.4 1.87.17.94.78.17 1.2 1.57 1.41-2.16-.62-.97 1.05-3.02.63.14.71 2.68 1.47.88-.83-3.82.63-.5c.22.07.47.15.64.21l.81-.47c.11-.27.22-.56.3-.78h-.67l-.9-1.72 2.49-2.66.51 1.06.59.09.6-1.32 1.22-1.82v-1.13l3.42-3.52.99-3.33 1.93.53.14 2.02c.09-.09.19-.17.28-.25l-.05-1.06 1.07-1.07 1.33.37.61 2.75 1 .26 1.69.94.06 1.83-.43.45.38.44-.52 1.07.15.02 2.51-1.55.68 1.95-.77.92.17.11.98-1 1.83.41 3.05 2.16.99.44.89-.23h1.24l.17 2.53-4.43 2.09-1.75.42-1.54-.6-.3.17 1.03 1.02 2.13.7-.8.57.93.49.35 1.22-1.29.56-1.15-.14-1.6.5-1.89.6-1.4-.8-.69.52-2.8-1.04-4.46-.37-1.89.44-1.66-.42-1.02.81-.87-.74-2 1.68.4 1.55-1.05 6.51h-1.56l-.95 2.21.8.23.83.94-4.12 2.23-.34.34 1.18 1.84-1.26.59-.91 3.39-2.11-.42-.71.13-1.56-.52-1.86 2.05-5.81-1.66.56-1.06h-4.07l-2.04.91-.62 2.11-3.36 1.55-2.48-.76-3.04.34-.3.72-2.13.59-6.22-5.51zm217.78 70.6l-.28-.35h-.81l-3.15.39-.88-.62-1.8 1.69-.91.5-1.83-.38-1.39.63-1.38-.41-1.37-.11-3.65.66 3.11-6.58 2.62-1.61 2.29-.67-.87-.7 1.63-.46c-.14-.07-.26-.12-.34-.17-.43-.22-1.13-.96-1.27-1.11l-.38-.41 1.36-1.06v-.59l-2.07-1.95-.87-3.8-1.34-1.23v-1.61l-7.45-3.41h-.88l-3.92-1.73h-1.92l-1.15-1.48-2.6-.38-1.87.44-3.32-1.73-1.43-.88-.19-1.19-.51.31-.95-.57-.3.65-1.45-.69-.71-.83-1.12.48-.76-1.49-.83.29-.15-1.14-1.12.65.3 1.18-2.28 2.38-.57-.7-1.92.54-2.07-4.39h1.72l-.15-.73-.09-.53-1.61.53.13-1.81-2.07-1.76-2.45.71-.15-2.68 2.51-.72 1.01.35h1.29l1.01.51 1.65-2.48 2.46-.31.16.32.1-.4 2.67.5-.3.52v.03l.18-.29.53-.43-.29-.77-.72.3-1.31-.2-3.37.71-.73-.28-1.25.33-.78-1.06-2.16.68-2.02-1.7-1.28-1.42.83-1.16-1.11-.41.2-.34-1.1.3-.42-.74h-2.27v-.7l-.27.76-3.07-.48.16-.39-1.26-1.38v-1.09h-1.06l.47-.84h-2.74l.57-1.7 2.76-.15.6-.84 2.25 1.37h.63l-.57 2.4.17.09.24-.57.68-3.08 4.19-.3 2.63-2.21h4.14l5.05 2.48h4.03l1.18 1.77-.79.8 1.93 2.1-.19 1.63-1.47 1.4.79 1.9.05 2.23 1 1.39.38.68.05-.8.4-.25.24-1.32 1-.02.42 1.88.39 2.41 1.33-.2-.35.84c-.26.63-.46 1.03-.63 1.29.21.23.54.58.86.9l3.37.39 3.27-3.01.44-1.61 2.03-1.08v-.82l.42-.47v-1.09l1.28-.48 1.7.78 1.22-.59 1.49-.77-.46-.32v-1.72l6.07-2.65 4.27 1.81 2 .88.8.76h.95l6.34 3.22 2.46-.15.48.8.67-.32h1.75l1.15 1.34.33.05v46.5l-6.31-5.4zm-44.45-36.9l.16-.11-.15.08v.03zM27.06 335.71l1.09-1.04v-.76l-1.49-.28c0 .09.4 2.09.4 2.09zm33.79 61.88l.56-2.36-2.09-1.16-1.52 1.13.5.56 1.24-.41.5 1.06v1.18h.81zm-3.18-15.35h-.69v.93l.82.25-.13-1.18zm-43.2-52.89l-.71 2.81 1.43-1.4-.72-1.41zm66.08-30.7l.97-.66-.05-1.55-1.1 1.03s-.01 0-.01.01l-.93.72s-.05.03-.08.04l-.91.15-1.61 1.55s-.09.05-.14.05c-.05 0-.1-.03-.13-.06l-2.03-2.36-2.29.9-.43.61s-.09.08-.15.08h-.92l1.08 1.83c.03.06.03.13 0 .19l-.59 1.04s-.05.06-.09.08l-1.18.5s-.05.02-.07.02c-.06 0-.12-.03-.15-.08l-.9-1.27-1.58-.7-1.62.42c-.07.02-.14 0-.19-.06l-1.02-1.25-.23.39c-.03.05-.09.09-.15.09s-.12-.02-.16-.07l-.89-1.13-1.99-.29-1.32.6s-.06.02-.09.02l-5.73-.25c-.08 0-.15-.05-.17-.13l-.19-.58-4.19 1.24-2.83 3.81s-.03.04-.06.05l-.78.44v.89c0 .1-.08.19-.19.19h-1.52l.39 2.28 1.09 1.27s.04.07.04.12l.06 2.79 1.69 1.69s.06.09.05.14l-.09 2.38.09.07v1.09l1.15 1.65v1.18l.72.28.25 1.62.72.5s-.34 2.05-.47 2.15c-.12.09.65 0 .65 0l.5.78-.28.75 1 1.22-.34-1.87-.28-.37-.38-.5.59-.44.72.44.75-2.06 1.9 1.71-.28 1.21s-1.71.65-1.81.75c-.09.09.93 1.09.93 1.09l1.49.09.69-1.46.97 1.03 1.43.03.59.59.51.36 2.52-.86 1.33-1.68v-1.06c0-.1.08-.19.19-.19h3.06l2.78-.83c.08-.02.16 0 .2.07l1.43 1.88 1.22-.08v-1.58l-2.8-1.44a.183.183 0 0 1-.09-.22l.44-1.41-.6-.86s-.04-.09-.03-.14c.01-.05.04-.09.09-.12l1.96-1.21c.05-.03.11-.04.17-.02l2.23.86.51-2.13c.02-.07.08-.13.16-.14l3.3-.46 2.2-2.11s.11-.06.18-.05l1.6.42.67-2.11-1.28-3.4a.195.195 0 0 1 0-.15l1.92-3.56-1.66-3.29-.58-.67s-.05-.1-.04-.16l.41-2.24s.04-.09.08-.12z"/><path d="M68.73 301.55l-1.49-.66-1.77.46-1.47-1.79.35-.58 2-1.39.53-3.39-.41-1.03.49-.61-.63-1.34h1.18l.34-1.54-1.75-1.38.34-1.3-2.73-.53-.4-1.69-.56.67-.96-2.48-.43-3.53.62-2.01-1.19-.77 1.03-1.03-1.63-.87-3.07-2.43-1.14-2.12-.68.62-.75-.42-3.32-1.3-.38.23.79 1.16-.39.29c-1.15.87-2.62 1.92-3.07 1.95h-.04c-.4 0-2.45-.19-3.06-.25h-.05l-2.99-.88-1.26 1.75v-.99l-5.73 4.15-1.77-.67 1.99-5.53-.79-1.71 1.39-1.32.12-1.64.67-1.07h-.45l-.99-2.76.42-1.11-1.32-.48-1.1 1.68-1.1-.74-1.79.26-.87-1.67 1.96-3.37-1.6-1.6-1.4 1.2-1.04-2.08.61-.19v-2.26l3.36-.84v-.52l1.48-3.11L36 245.4l.59 1.83 2.78.21-.49-4.22-.37-1.93-.33-2.7 2.29-.85 1.31.81.91.04 3.95 4.66.09.81.68-.66 1.36.3.41 1.68-.85 2.81 1.97 2.37 1.55.44 2.02.63.29-.81 3.04-1.31 2.98 2.1 1.49.98-.63.43c-.94.64-1.39.97-1.6 1.14.15.16.45.44 1.03.95l2.37.19 1.01 1.86-1.6.95-.09.66-1.67 1.85-2.87-.93-.75.4.82 1-1.81 1.2 5.51 3.42 3.56 1.06-1.05 1.36 2.09 2.12.72-.23 1.08 1.57.28 1.75 3.32 3.53h.79l1.2 1.97 1.14.56.65 2.93.36.85 1.61-.75-.35 1.25 3.01 2.38h1.56l-.22 1.16-2 1.57 3.84 4.19-1.66 1.53.64 1.62-1.52 1.44-1.01.78-.95.15-1.82 1.76-2.19-2.55-2.16.85-.51.71h-.84l1.05 1.78-.74 1.3-1.52.64-1.04-1.45z"/><path d="M94.99 312.27l.86-.75-1.24-1.12.87-.58-1.19-2.55.35-2.66-.82-.28.09-.61s.72-.75.72-.82-1.94-4.91-1.94-4.91l.4-1.94-1.78-1.73.14-1.12.23-.68-.42-1.22h-.93l-3.13-3.81v-1.63l-1.57-.31v-.75l-.87-.37-.56.37-1.06-1.37-4.11-2.87-.06-1.18-3.61-2.8v-1.06l-1.06-1.25-.62-.93.75-.93-.81-1.31-.44.37-.44-.62-1.31-.93-1.62-1.43-1.43-2.3-.75-1.68 1.12-.37v-.81l.31-1.43v-1.68l.56-1.12.81-1.37h1.25l1.12-.87.5-1 1.62-.5v-2.93l1.68-.87.5-1.81 1.68.56 1.31-.62v-1l.44-1.25h1.5l2.74-1.62-1.74-.81-1.84.06-2.55-.84-.78-1.31-2.34-.59-.03-2.03-.75-.37.22-2.06.59-.25.53-1.31-1.68-1.03-2.18.68-.28-.96-1.12-.37-1.31.87-.84-1.15-1.25-.16-.59-1.09-.56-.97-.72-.4-.34.81-2.96 1.53v.97l-.87 1.18-2.11.59-1.28.65-3.08 1.31-.28-1.31-1.03-.09-.84 2.62-2.06-3.36-1.12 3.18-2.06-2.52-2.15-.65-1.59 2.52-.82-.04 3.52 4.15s.04.06.04.1l.11.99.75-.73s.11-.06.17-.05l1 .22c.07.02.12.07.14.14l.34 1.4v.1l-.84 2.8 2.05 2.46 1.59.45 2.14.66.28-.8s.05-.09.1-.11l2.74-1.18c.06-.03.13-.02.18.02l2.83 1.99 1.09.71c.05.03.08.09.08.15s-.03.12-.08.16c-.8.55-1.68 1.17-1.96 1.4.18.21.7.69 1.18 1.1l2.24.18c.06 0 .12.04.15.1l.78 1.43c.05.09.02.2-.07.25l-1.39.83-.08.63s-.02.07-.05.1l-1.46 1.62c-.05.05-.13.07-.2.05l-2.73-.88-.94.51.7.85s.05.09.04.15c0 .05-.04.1-.08.13l-1.69 1.12 5.71 3.54 3.12.93c.06.02.11.06.12.12.02.06 0 .12-.03.17l-.83 1.08 2.23 2.26.58-.18c.08-.02.16 0 .21.07l.9 1.31s.02.05.03.08l.27 1.72 3.39 3.61H72c.07 0 .13.03.16.09l1.12 1.85 1.04.51c.05.02.09.07.1.13l.62 2.79.42.99 1.1-.51c.07-.03.14-.02.2.03s.08.12.06.19l-.18.66 3.12 2.47h1.21c.06 0 .11.02.14.07.04.04.05.1.04.15l-.12.65s-.03.08-.07.11l-2.02 1.59 3.73 4.06c.07.07.06.19-.01.26l-1.49 1.38.64 1.63s.01.04.01.06l.06 1.9c0 .06-.03.13-.08.16l-.99.67-.37 2.08.53.62s.02.02.03.04l1.71 3.4c.03.05.03.12 0 .17l-1.92 3.57 1.28 3.38s.02.08 0 .12l-.75 2.34a.18.18 0 0 1-.23.12l-1.67-.44-2.17 2.08s-.06.04-.1.05l-3.24.45-.53 2.21c-.01.05-.05.1-.09.12-.05.03-.1.03-.15 0l-2.34-.9-1.72 1.06.54.77s.04.11.03.16l-.42 1.35 2.76 1.42c.06.03.1.1.1.17v1.87c0 .1-.08.18-.18.19l-1.5.09c-.06 0-.12-.02-.16-.07l-1.42-1.86-2.68.8H63.2v.93s-.02.08-.04.12l-1.4 1.78s-.05.05-.09.06l-2.32.8.64.46.73 1.11 1.21-.33.16.65 1.05.19.86 1.1-.77.28-1.05 1.59-.3 6-.02.82.79.3-1.19.89h.82l1.26-.28 2.34-1.45.86-1.75 1.64-.98 1.89-.68 1.52-.28.54-1.4-5.05-5.61 5.4 5.3.35.3 1.36-.35.35-.96-2.92-2.94-.05-.7-2.17-.96 2.43.7.21 1.19 1.85 1.73h1.14l.37-.68-3.04-2.41 3.71 1.45-.09-1.17-2.9-.93 2.94.56.56-.91-2.27-.3.7-.51 1.36-.4s-.47-.63-.49-.72c-.02-.09 1.07.09 1.07.09l.58 1.21 1.61.63h1.24l2.31-1.82 2.55-.86.65-1.07 1.19-.14 1.4-1.31h.75l1.61-1.14 1.26-.51.05-1.57h1.47l.23-.63-.63-1.03 1.1-1.03-.82-.65-.23-1.08.65-.4-.56-1.33.77-.14-.63-1.24.42-.93.63-.07-.35.77.54.63zm39.66 55.36l-.35-.11-3.01 1.87-2.73.32 1.84 1.43s.06.07.07.11l.16.91.75.16s.08.03.11.07l1.24 1.63 1.56-2.4-.59-.91s-.04-.11-.02-.16l.97-2.91zm-77.26 27.6l-.12-.6-.81-.15-1.56 1.35 1.19.14 1.3-.74zm69.16-153.54l-.72.56.72.05.41.31-.63 1.24.52.31 1-.61.58.36-.22.69 1.47.31.27-.5 1.58-.28.17-.91.66-.53-.47-1.11-.91-.52-.4-.36-1.09-.36-.94.33h.07l-1.55.58-.52.44zm-26.78 29.25l2.05-2.16v-2.36l3.27-4.12v-1.89h-6.32l-.99.67-2.55-.67-1.33 1.44-1.33 1.55-3.1 1.89.89 3.32-.89 1.99 5.21 1.83 3.49-1.16 1.6-.33zM58.36 396.78l-.97-.35-.41.35 1.17 1.71.21-1.71zm-1.31-67.33l.22-1.37-.81-.47-.37.53h-.75v.59l.9.94-.12.62.93-.84zm11.4 51.23v1.87l1.25-.93-1.25-.94zm8.94 43.36l-1.28-.47-.53.65-1.06.06.53-1.27.1-.84h1.46l-.56-.72-.59-.62-2.59-.19-.71-1.56-.04-1.27-.31-1.78-.81-1 .04-.71-1.25-1.15-.97.62.44 1.93-.87-.37-.56-1.72-.44.16-1.77 1 .18.49.7.38-.42.46-1.9.85v.81l1 .12.61.41 2.22-.35 1.19.91v.87l.9.93v1.75l1.06.84 1.84.68.81.94 1.06-.22v.53h1.15l-.19-.81 1.37.5.19-.84zm-62.76-97.99l.56-.75-1.06-1.83-.37.87.87 1.71zm58.06 52.76l-.38-.25-.56 2.12.94.31v-2.18zm15.19-4.82l-1.15-.66.22-.78-.34-.22-1.84 1.56.34 1.25 1.65.28v.65l-.37-.31-.87.44.25.56 1.43-.22.68-1.59v-.96zm-24.72 31.39l.62-.69-1.93-.87-1.06-.46.28-.13-1.93-1.62.96 1.34-.96 1.43.46.59-1.8.85 1.21 1.62 1.87-.6-1.45-1.43 1.64-1.31 2.09 1.28zM25.1 356.21l.16 1.5s.89 1.14 1.03.98c.14-.16.63-1.42.63-1.42l-.3-.65-.98.21-.54-.61zm29.3 37.02l1.43.31.53-1.15.06-.78v.28l.9-.19.97 1-.03-.72-.47-1.09v-1.06l-.87-.47-.25-1.03-.5-.84-.19-1.28-.68-.75-.65-1.4h-.9l-.81-.97-.84-2.21.34-3.36-1-1.59.06-.93.72-.87-.28-1.15.62-.81-.12-3.77-1.81-2.52-1.68-2.74-1.25-.4-1.87-1.71-1.62-2.46-1.25-.22-.28-.23-1.28 1.81v.87s-.01.08-.04.12l-.75.93a.19.19 0 0 1-.26.03l-1.76-1.41-3.25 2.17s-.07.03-.1.03c-.06 0-.12-.03-.16-.08l-.87-1.31a.217.217 0 0 1 0-.22l.82-1.05-.44-2.2-1.36.43c-.05.02-.11 0-.16-.02a.196.196 0 0 1-.09-.13l-.23-1.48-2.91-.36a.183.183 0 0 1-.16-.18v-1.06h-.62l-.66 1.8c.48.95 1.42 2.79 1.46 2.9.06.16.59 3.8.59 3.8l-.5 1.22.47 1.02-.09 1.4 1.53.93-.06 2.4-.12 1.84.69 1.68.41 1.09 3.8 4.33.19 1.18-.06 1.59 1.62 1.34 1.46.28.72 1.71.87.22 1.9 1.4 1.84.4 1.62 1.96.56.16 1.81.93 2.65 1.46.59 1.31.65-.06.72.22.69-.31zm-40.98-80.26l-.84 1.15 1.4 1.34v-.99l-.47-.6.31-.4-.4-.5zm38.66 83.21l-.58 1.12s.84 1.21.91 1.19c.07-.02.65-.35.72-.4.07-.05-.37-1.33-.37-1.33l-.68-.58z"/><path d="M33.98 361.17l.93-1.19-.4-1.99-1.57.5-.27-1.75-3.09-.38v-1.21h-.38l-.91 2.48-.54-1.06-3.2-2.98-.09-1.6-.92-.92-1 .69-.08-3.02-1.01-.68v.16l-1.01.13-.48-1.9-.52-.93h-1.5l-.43-1.76-.51-.4-.26.47v2.76l-1.51 1.04-.23-.62c-.5-1.35-.5-1.49-.5-1.58v-1.33l.19-.05-.89-2.53.87-2.62.45-.99-.37-1.36 1.36-2.97.51-2.55-.16-.27 1.55-2.45.34-3.01 1.36-.61.09-.66.69-.48 2.62-3.03.26-1.92h.68l.51-.72-.67-2.38-.62-.34-.52-2.92-1.58-1.12-.66-2.9.7-1.36-1.07-4.82-2.61-2.1-3.54-4.73-.31-2.88.32-.16c1.42-.69 2.28-1.14 2.55-1.34.06-.69.49-3.62.63-4.55l.07-.44h1.52l.32-1.36h-.33l-1.3.61-1.09-2.62v-2.73h-.89l-5.57-6.76 1.08-.68-.76-1.91-.59.29-.24-.44c-.3-.55-.56-1.04-.73-1.39l-.43-.87.87.12 1.63-.68-.24-2.53.62-1.3-.69-.62 1.14-2.36 1.33-.85.37-1.71 2.33 1.2 4.63-.81.26-2.54 2.15.42.99-.64v-1.96l2 .68 2.35-.74.62 1.25 1.22-1.05 2.38 2.38-2.03 3.49.49.94 1.58-.23.77.51 1.02-1.56 2.42.89-.57 1.5.75 2.1h1.17l-1.2 1.92-.13 1.73-1.23 1.17.7 1.53-1.87 5.18.85.32 6.48-4.69v.26l.36-.49 3.37.99h.01c1.55.15 2.66.24 2.95.24.26-.07 1.23-.68 2.64-1.74l-.83-1.21 1.24-.76 3.66 1.44.37.21.95-.87 1.48 2.74 2.91 2.3 2.36 1.25-1.09 1.08.93.6-.72 2.35.41 3.32.53 1.38.69-.82.6 2.55 3 .59-.41 1.56 1.74 1.37-.54 2.45h-.68l.37.78-.51.63.34.84-.6 3.84-2.11 1.47-.77 1.28-1.15-1.45-1.9-.28-1.35.62-6.03-.26-.22-.66-4.02 1.19-2.84 3.83-.77.44v1.13h-1.68l.36 2.09 1.14 1.33.06 2.85 1.75 1.75-.12 3.25-.6-.46v.82l-1.03-.69.32.52-2.54.31-.41-1.89.51-.48-.02-.03-1.1-1.03-.2-.76-1.53-.26-.33-.54-.37.34-1.68-.47-1.05.35h-.61l-.67-.44-1.21.41-1.65-.64.64-1.36-.43-1.09-.63-2.07 1.17-1.05-.14-.28-2.16-.27-2.87.31-.85 1.06.99 1.13-1.13 2.68.67 4.47-1.51 1.91.19.76-1.59 1.91-.52 2.1v1.09l-.65.34v1.72l-1.57 2.23.32 1.07-.51.56.26.23-.76.62.14 3.5 1.06 2.22-.61.53.16.13 1.08-.41 1.32-.89 1.57.59.74 2.4.48 3.45.39.37.99-.11 1.5 5.35.35 1.78.1.7 2.27 2.84 1.39.97 1.06.12 1.56-.8 1.58 1.27 1.9 2.46 2.03 1.67-1.54 2.19v.95l-1.02 1.28-1.94-1.55-3.44 2.29-1.18-1.77zm-3.85-11.91l.06-.03-.68-1.77-.14-.04-.08.09.84 1.76zm-14.05 57.76l.75-2.5-.98-1.66h-.47l.7 1.96-1.22 1.87 1.22.33zm48.17 37.79l.65-.65v-1.17s.33-.65.47-.61c.14.05 1.82 1.73 1.82 1.73v.65l1.36.28.98-4.34.33-1.68.47-.33-.51-1.07.51-2.52-1.17-1.64 1.59-2.99-1.54-.7 1.54-3.08v-2.34l-1.77-.33-.05-1.21-1.17-.75V420l-1.64-.09-1.03-.51-1.08.47-1.45-.14-.89.75.79-1.96-.23-1.21-1.26.09-.19-.98-.75-.19-.79-5.51-1.64-.33-1.68-.7-.84.79-3.92-2.52.7-1.17 1.08-.19.47-1.17.7-.14-1.31-.84.19-.86 1.64-.77-.75-2.29-2.34-1.68-2.66 2.1.89-2.1-.75-1.03-3.25-.05-.82-.72.91.44 3.46.19.49-.21-1.99-1.56 2.22 1.28.19-.58-2.24-1.8-.82-.23-1.03.91.96.19-.89.09-.68-.72-.37.49.42.65-1.03.54.61-.77-.33-.51.75-1.21-.12-2.41-1.31-.12-1.8-.54-.4.35.56.89 1.71.21.82 1.17-1-.89h-.98l-.02 1.85.89-1.4-.26 1.17-.4.56.68 1.24-1.1-1.26-.26-2.27-.82-.37-1.52-1.4-1.03-.4 1.03-1.31-.68-1.47-1.21.35-.77-.05v1.57l.93.65.42.05-.79.23-.54-.37-1.14.23.61-2.22-1.05-.82-.89-.89-.86-.33-1.08.98.43 1.19-1.3-.82-.96-.16-1.4-1.35v-1.26l-1.28-1.63-.72.72-.63-.89.02-1.4-1.87-1.64-1-.12-3.95-2.99s-1.92-.42-1.94-.49c-.02-.07-.49-1.5-.49-1.5l-2.55-1.38-.82-.51s.47-.86.47-.98-.19-1.17-.19-1.17l-1.8-.47-.33-1.98-3.41-3.18-2.62.93-1.49-1.4-4.21.7-2.52-.7-1.4-2.06h-3.83l-1.4-1.31 1.22 2.38-.56 1.45 1.4 1.5.84 2.15 5.15 4.29 2.43 3.27h2.52l2.48 2.66 1.21 2.85h1.22l1.03 4.44 1.03.51h1.12l2.48 1.73h1.12l1.4 2.29h.98l-.51.89 1.73 5.09 1.17 4.63 3.13.42.93 1.45v1.73l1.82 1.03 3.04 3.46v1.45l.37 1.36h1.03l2.48 5.05-.84 1.21 2.48 3.64h1.26l1.68 4.3 5.37 3.04v1.73l3.88 3.32.23.75 1.4.37 1.82 1.91 1.78.89 2.48 1.4v.75l1.54 1.54 1.54 1.68 2.2 1.82.61-.42-1.17-2.48.51-.47 3.22 2.38zM-.32 383.05l-1.26-.1-.42-1.07-.7-.37-.66 1.35 1.45 1.5h1.08l2.15 1.86h.7l.23-1.02-2.48-1.33-.09-.82zm19.44 31.53l2.05.98 1.17-.23v-.89l-1.12-1.27-1.33-2.79v-.84h-2.04v1.31l-.42.32 1.5 2.71.19.7zm5.04 4.02l1.22.94.65-.71-1.54-1.35-.33 1.12zm113.4-46.99l-.96-4.21h-.01c-.07.05-.96.54-.96.54l-.51-.16.64 2.76 1.8 1.07zM11.73 399.26l.71-2.94.37-.89-1.54-.75-1.54-1.91-.94-.61-1.21.33h-1.4l2.1 2.74v.74l1.4.25.7 1.12v1.45l1.35.47zm7.57 2.72l-1.87-.37-.6.73h2.47v-.36zM397.34 43.44l-.93 1.69h-2.37v1.27l2.62.59-.42-1.27 1.69-.5-.59-1.78zM247.7 82.25l4.21-3.59-1.3-2.33v-3.07l.69-2.67-2.1-4.51 1.4-2.55 5.87-2.28 8.07 2.24-.53-3.64 2.01-1.32 5.64-12.14-.04-3 4.7-3.07-1.53-2.91v-2.55l-2.1-1.75-6.64 3.03-2.03-.54-5.65 3.68-10.02-.13L246.8 36l.21-3.95-1.42-3.6-2.36-.41-3.24-3.98-4.65 1.38-2.46-2.33-7.89-2.88v-3.68l-1.27-1.52v-3l-2.93-4.67-.35-5.01-2.98-1.66-2.38-7.85-7.27-5.29-3.78 1-9.23-3.79h-6.63l-4.99 2.32h-6.46l-6.29 5.74.52.78 2.43-.2 3.34 1.84-.29 4.62-4.43 3.3-7.47 10.72 1.38 1.23.26 3.18-4.26 1.02-6.17 3.11-6.09-1.82-1.35-1.13-3.77-2.06-4.72 1.63-1.97-1.78-6.06-2.21-7.49 4.23-.82 2.23-5.42-.04-1.76 1.8-8.17.51-3.17 2.08-4.65-1.36-8.72-.47-3.63-1.95-1.71-3.74-5.62.04-3.3-4.05-4.33.87-2.08-1.69-5.05-.15-5.66 2.24-5.91.47-3.23-1.65-2.22-.06-2.85-3.59V6.35l-.88-2.26-4.33-1.11-3.72-.39L27.25-.1l-6.53-2.76V.48l-2.23 1.45L15 7.08l.66 3.8 2.84 1.81-1.79 3.72-3.2 1.63-3.72.79-1.42-.97-3.02.5-4.32-2.47-5.8 1.38-2.87-.31-2.01-1.47V13.2l-1.78-1.69-8.41-.22-1.65-1.71-2.42.98-.76-1.07h-2.8l-1.98 2.64-4.48 1.28-8.77 3.53-1.57 2.7-4.42 1.91h-4.79l-2.4 3.54-1.37.73-3.17-4.35-1.48 1.48h-5.28l-2.4-.69-2.91-1.4-.56-3.13-4.42-1.02v-1.66l-2.64-3.64-4.64-2.21-9.76 2.24-4.45.35-.58-3.91-2.8-1.72-2.84.74v3.16l-2.84.74-13.7-21.17-1.33-2.11-9.04-5.65-.62-2.12 1.8-.89-.88-1.72-3 1.39-5.6 2.13-.91 1.36-5.61 1.35-.58 1.82-4.59-1.11-1.67 1.07h-1.73l.61-3.26 1.56-1.57v-.24l-2.98 1.06-2.68-.89-1.49 1.03-2.88-1.8v-2.8l-.44.13v1.02l-3.47.81-2.7 1.17-2.01-1.63 1.2-1.69.65-2.37-1.2-1.63-2.43-4.41-1.95.31-1.05 1.4-3.92-1.5-4.77-1-2.01 1.68h-2.08l-.44 1.2-6.74 2.74-7.47.91-6.46.89-1.8 2.36-4.25.8h-4.72l-6.77 2.71-4.52-.56h-6.93l-2.03 1.71v2.18l3.58 1.73-1.09 1.53 2.81.62 2.48 1.3v1.29h-5.6l-.78 1.33-2.13.45-.59 1.39 1.42 1.42.37 1.72-2.03 1.91-4.99.66-.09 1.1 2.89 1.44.32.88h2.42l2.15 1.67 2.76.46.56 1.67h1.39L-237.73 8l-1.14 3.44-8.53.94v-1.47l-1.17.09-1.02 2.6h-1.64l-1.14-.91-.47-.07v-59.25h555.79l-4.1 4.1-.43 2.43-13.71 8.57-5.25 3.36-.39 1.18h2.21l1.1 1.1h5.02l3.13.98.13 6.27 2.12-4.17 3.62.58-.95 2.36 1.21 1.02-2 2.35 2.78-.17 4.25-3.26.8 1.03.3-2.65 1.21-1.33 3.13 1.4.76-1.29h4.28l3.32 4.88 7.36 5.43-.89 2.09-1.53 1.33 1.18.78.11 1.99-1.07 1.21 2.08 1.19V.7l-3.1 3.61-1.37 4.97-1.28.88v1.75l-.76 1.11 1.44 1.29v4.2l-1.5.62 1.04.75-.91 5.09-2.84 7.56-8.06 9.84-5.42 8.67-.43 3.01-5.38 5.9-5.55 3.94-4.69 6.55-3.91 4.86-3.82 1.2-6.44 4.71-5.05 2.34-2.29-2.68-5.38.27.14-3.49-.52-.37-2.42 2.95-5.83 5.87-.69-3.88zm53.82-98.38l.68-.34.16-1.39-.84 1.73zm115.68 40.9l.85-3.63h-2.37l-.93 1.44s.84 3.04.93 2.96c.08-.08 1.52-.76 1.52-.76z"/><path d="M-10.57 288.19l1.14-.77.23 1.21v-.09l1.05-.09.61-1.35-.21 1.42.72-.09 1-1.47-.84 1.89 1.05.4 2.08-1.19.47-.98.23-1.5 1.57-.3.23-.54 1.26-.07s1.1-.77.98-.84c-.12-.07 0-.56 0-.56l1.26.26 2.24-2.01.21-.68 1.03-1.61-.61-.28v-1.21l.7-.54.7 1.49.61 1.21.28 1.75.19.14.84 1.31.93-.02.63.33-1.05.89.61 1.17.61-.51v-1.42l.4 1.47-.75 1.08 1.8 2.92-.61 1.15.3 1.87.42 2.9.33 1.1.89.49-.7.42.37.79.35 1.5.7 1.1s.91.02 1.1.12c.19.09 0 .65 0 .65l-.26.4.33 2.17-.65-2.5h-.72c-.16 0 0 1.24 0 1.24l.98 1.26-.54.84.65.44.33-.89.63.23.84 2.38.44.44.68 1.87-.28.63.7 1.7-.23 1.66-1-.14-.23-.91-1.03-.86-1.12 1.33 1.03.26-.49.98s.7.65.82.3c.12-.35 1.4-.91 1.4-.91l.98.49v.58l-.75.49.93.42-.28.75.68.26-.68.96-1.61-1.1v1.1l1.38.68-.44.47-.77-.47-.33.35-.77.02-.3-1.68-.47.02.42 1.47-.65 1.24-.23 1.43 1.1-.3.14-1.89.54-.19-.12.72 1 .87.51-1.13.26-.09.51.42.21.98-.37.86.61 1.17-.44 1.05-.05.98-1.64 1.35-.49 1.45.84.79v1.1l-.09 1.54.15.26 1.3-2.05.32-2.85c0-.06.05-.12.11-.15l1.26-.56.08-.6c0-.05.03-.1.08-.13l.59-.41 2.66-3.07.23-1.67c.01-.09.09-.16.18-.16h.47l.59-.83-.7-2.5-.54-.29a.212.212 0 0 1-.1-.13l-.5-2.82-1.53-1.08s-.06-.07-.07-.11l-.61-2.66s0-.09.02-.13l.67-1.29-1.09-4.92-2.61-2.11-.03-.03-3.46-4.62s-.03-.06-.04-.09l-.28-2.57c0-.08.03-.15.1-.19 1.19-.58 2.5-1.25 2.75-1.44.02-.29.12-1.26.65-4.77.01-.09.09-.16.18-.16h1.35l.38-1.64h-.53l-1.02.48s-.1.02-.15 0a.217.217 0 0 1-.11-.1l-.93-2.24s-.02-.05-.02-.07v-2.8h-.87c-.06 0-.11-.03-.14-.07l-5.23-6.35s-.05-.09-.04-.15c0-.05.04-.1.09-.13l.86-.54-.86-2.16-.44.22c-.09.04-.2.01-.25-.08-.72-1.31-1.08-2.05-1.08-2.21 0-.12.07-.19.14-.22.08-.03.19-.07.53.3l1.68-.71-.24-2.54s0-.07.02-.1l.63-1.31-.58-.53c-.06-.06-.08-.15-.04-.22l1-2.06s.04-.06.07-.08l1.3-.83.3-1.36c.01-.06.05-.1.1-.13.05-.02.11-.02.17 0l2 1.03 4.78-.84.24-2.29c0-.05.03-.1.07-.13.04-.03.1-.04.15-.03l1.86.36 1.1-.71v-1.58c0-.06.03-.12.08-.15s.11-.04.17-.02l1.62.55 2.47-.78v-2.1c0-.09.06-.16.14-.18l3.22-.81v-.56s0-.06.02-.08l1.4-2.94s.05-.07.09-.09l2.59-1.3-.36-1.13-.5-.84-3.64 2.71-.94-.75-1.59.47-.37-1.4-1.68-.65-.37-2.06-4.67-.19 1.03-2.43-.28-1.68.56-1.59h.93l-.19-1.31-2.34.09-1.77-.65-.75-2.34v-1.31l.47-.62-.37-1.81-.19-.65-3.65 2.93-2.24-.19-3.46 1.78-.75-.19.65-2.99-1.03-.84-.28-2.05 1.31-1.5 1.4-1.68 1.21-.84.75-1.59h.84l1.03-1.68 1.21-.56-.75-1.4.93-.37-.19-.47.65-2.62-.47-1.87-.28-5.05-1.68-.93-.28.56-.75-.19-.65-3.46-2.43-2.34-1.96-1.03-1.03 2.52-.62 1.65-2.85 2.24 1.34 3.11-1.37.14-1.16-1.66-4.73 1.23-1.37 2.09-1.62.9-1.01 1.41-1.95.58-.32 1.81.79 2.24-1.12 1.12v2.02l-2.24.54-.65 1.99.65 1.37-1.3 2.38-2.92 4.48-4.26-.67-.54 3.23-.25.22-1.08.18v1.62l-.41 1.56.7 1.73-.54 1.08-.25.65-.87 1.04-1.7-.81-.65.59-.2.76-.45 2.82-.14 1.08-1.84-.83-.69.22.37 1.81.89 2.05v1.76l1.96 2.59 2.18 2.52 1.12 1.78.9-.03-.31-.93.69-.4 1.03.25.47 1.65s.22-.62.22-1.03.53.59.53.59l.9-.72.56.87-.22 1.31 1.87 1.31-.06 1.31-.97.65-2.34-1.49v1.25l2.77 3.05.47-.09-.31-1.43.56-.62.59 1.28-.34 1.09 1.56.78.28 1.56.98 3.5 1.07 2.1-.49 3.57-1.17 4.79-1.03 1.73-.28 2.41.7.49 1.17-.37-.42.56.23.72.89-.61 1.96-1.26-1.12 1.68.51.47zm72-197.57v-1.43l-4.17 1.44-12.43-3.33-3.55-3.99-17.38.01-14.85-2.11-4.21 1.33L.18 75l-.77-2.88-3.99-3.98h-2.76l-9.97-5.98-16.4-1.44-3.11-4.44 2.67-4.11 1.1-6.42-8.08-9.29-2.67.5-.32.06-1.11-1.56-3.87-.1-4.43-3.66-2.11-3.22-.22-2.94-.09-.08-.27-.29 2.41-3.8h5.15l4.1-2.05 1.67-2.33 8.12-3.56 5.36-1.78 1.72-2.24h2.65l1.09 1.33 2.18-1.45 2.32 1.79 8.01.16 1.96 1.96v2.14l1.74 1.58 3.04.46 5.55-1.35 4.55 2.02h2.63l1.94.65 3.8-.79 2.93-1.39 1.73-3.9-2.63-1.54-.75-3.93 2.11-3.16 1.55-2.24 2.02-1.4V-2.6L28.86.29l8.09 1.98 4.17.5 3.6 1.08 1.12 2.82v4.07l2.75 3.35 2.32.32 3.48 1.47 5.38-.32 5.9-2.5 5.43.18 1.94 1.45 4.22-.84 3.53 4.2h5.75l1.56 3.64 3.56 2.01 8.94.34 4.15 1.6 3.55-2.26 7.93-.66 1.67-1.51 5.34-.16.77-1.85 7.83-4.52 6.13 2.27 1.84 1.54 4.6-1.48 3.34 1.89-3.33 7.04-2.21 6.08.4.96.15.37-2.43 1.78 2.75 4.29 3.1-2.21 3.12 1.12 2.76 1.1 4.09-4.1 3.99.89 10.87 9.31-1.34 2.34h-4.99l-2.88.45-3.44-.67-2.71 2.33-1.71-1-2.33 2.55h-3.77l-2.76 3.43-.11 1.99-7.32 2.89-5.76-.89-1.76 3.32-4.55 2.11h-7.65l-2.11-2.22-2.22.11-3.62 3.98 5.43 6.65-6.23 2.55-3.86 2.33-1.55 3.87-6.99 2.44-18.05.78-13.07 6.75-4.23-1z"/><path d="M-11.66 11.75l-7.98-.17-2.16-1.66-2.26 1.5-1.23-1.5h-2.16l-1.66 2.16-5.48 1.83-7.97 3.49-1.66 2.33-4.32 2.16h-4.98l-2.05 3.22.09.1c.08.08.12.19.13.3l.21 2.81 1.99 3.04 4.24 3.5 3.71.11c.16 0 .3.08.39.21l.92 1.29 2.68-.5c.17-.03.35.03.47.16l8.08 9.3c.1.11.14.26.12.41l-1.11 6.43c-.01.07-.04.13-.07.19l-2.48 3.82 2.78 3.96 16.16 1.42c.08 0 .15.03.21.07l9.85 5.91h2.63c.13 0 .26.05.35.15l3.99 3.99c.06.06.11.14.13.22l.76 2.81 4.41 7.14 3.84-1.21a.55.55 0 0 1 .22-.02l14.81 2.1h17.35c.14 0 .28.06.37.17l3.45 3.88 12.14 3.24 4.04-1.39c.15-.05.32-.03.45.06s.21.25.21.41v1.05l3.65.86 12.91-6.67c.06-.03.14-.05.21-.05l17.98-.77 6.69-2.34 1.47-3.67c.04-.1.11-.19.21-.24l3.86-2.33s.04-.02.07-.03l5.59-2.29-5-6.13a.489.489 0 0 1 .02-.65l3.64-3.99c.09-.1.21-.16.34-.16l2.23-.11c.14 0 .29.05.39.15l1.96 2.06h7.32l4.29-1.99 1.69-3.18c.1-.19.31-.29.52-.26l5.63.87 6.89-2.71.09-1.67c0-.1.04-.2.11-.29l2.77-3.43c.1-.12.24-.19.39-.19h3.55l2.18-2.39c.16-.17.42-.21.62-.09l1.41.82 2.44-2.1c.12-.1.27-.14.42-.11l3.35.65 2.79-.43h4.77l.98-1.72-10.45-8.95-3.6-.8-3.9 3.9c-.14.14-.35.19-.54.11l-2.76-1.1-2.85-1.02-2.89 2.06a.47.47 0 0 1-.38.08.574.574 0 0 1-.33-.22l-2.77-4.32a.492.492 0 0 1 .13-.67l2.12-1.54-.4-.97a.45.45 0 0 1 0-.36l2.21-6.09s.01-.03.02-.04l3.12-6.6-2.73-1.55-4.65 1.5-1.99-1.66-5.82-2.16-7.47 4.32-.83 1.99-5.48.17-1.66 1.49-7.97.67-3.66 2.33-4.32-1.66-8.97-.33-3.82-2.16-1.5-3.49h-5.65l-3.49-4.15-4.15.83-1.99-1.49-5.15-.17-5.88 2.49-5.58.33-3.53-1.49-2.45-.33-2.99-3.65V6.81l-1-2.49-3.32-1-4.15-.5L28.77.83l-7.48-2.66V.62l-2.16 1.5-1.5 2.16-1.99 2.99.66 3.49 2.82 1.66-1.99 4.49-3.16 1.5-3.99.83-1.99-.67H5.33L.84 16.58l-5.48 1.33-3.3-.5-2.02-1.83v-2.16l-1.66-1.66zm315.09 113.32l1.77-1.77-.79-.48.2-1.35-.61-.22-1.32 1.48.69 1.09-1.12 1.37 1.18-.12z"/><path d="M97.15 255.5c-1.86-1.11-1.73-2.1-1.48-2.6.08-.17.3-.68.49-1.14.56-1.34.72-1.7.9-1.91l-.86-.47-1.96 1.18-3.28-1.52-2.47-1.8-.02-.47h-1.04l-1.6.59-2.35-1.78-2.34.1-2.88-.85-.76-1.29-2.66-.91.04-1.93-.88-.32.16-2.67.89-.56.27-.61-.94-.59-2.6.77-.34-1.27-.47-.16-1.55.95-1.06-1.34-1.4-.05-1.21-2.2-.26.47-2.59 1.21.02 1.06-1.23 1.4-2.24.6-4.87 2.1-.5-1.59-1.3 3.35-1.93-3.34-1.06 3.44-2.65-3.74-1.35-.37-1.54 2.42-2.97-.06-1.06-.69-.79.29-.05.65.6 2.89.69 5.76-4.88-.17-1.12-3.73-.07-.09-3.29 2.51-1.13-.68-1.99.23-.41-1.48-2.03-.87-.19-1.77-4.77-.34 1.12-2.89-.24-1.51.56-1.87.65-.1v-.27l-1.89.04-2.12-.94-.9-2.75.16-1.51.37-.49-.3-1.16-3.2 2.28-2.01-.09-4.83 1.97.36-3.64-1.12-.86-.08-2.37 2.76-3.59 1.47-.82.57-1.75 1.09-.03.75-1.58.83-.26-.66-1.23 1.01-.46-.17-.48.79-2.62-.65-1.57-.23-4.97-1.09-.77-.57.24-1.05-.86-.7-3.01-2.16-2.09-2.29-.92.25-1.62-2.58.18-2.23-1.44 1.42-3.35-1.47-.18v-2.25l-2.27-1.66-5.61 2.48-4.29-1.07-5.19 5.08-4.09.77-4.6 4.73-5.75 1.91-1.51-3.37h-3.28l-5.45-1.13-2.97-1.19-4.41 4.2-3.1 1.55-1.98-3.3-3.27 1.78-6.01-.81-3.62-.72v1.83l-2.82-1.09h-1.64l-1.99-2.44h-2.88l-.77-1.68-1.14-.81-2.54.66-2.62-1.83-2.1-4.1h-4.44l-1.55-3.1h-1.91l-7.97-6.03-4.42 3.31-2.25-1.61v-1.55l-4.85-1.9-.69-.98h-2.1v-2.09l-4.2-.61-1.72-1.92-1.9.81-1.01-5.71-2.1-3.38 1.1-3.11 3.65 2.9 1.39-.57 2.89-2.8-3.58-4.63.39-2.15-2.89-.96 1.67-2.89.59-.72-3.27-2.59 7.04-7.15-1.32-1.32-6.07 4.19-3.4.66-2.21-3.06h-2.53l-5.28-.94v-1.88h-6.3l2.2-3.08-2.19-4.38-3.51-1.4v-.64l-2.49.92-2.4-1.11-1.06-3.98h3.68l-.63-1.67.73-1.6-1.54-1.69.3-1.96-3.32-1.99h-2.37l-3.32-7.26 2.62-1.5v-2.56l6.15-4.85h2.46l4.71-2.16 1.26 2.7 3.61-.62 3.71-5.74h8.4l3.2-3.68 11.57-3.81-.77-5.1 3.9-4.41.14-3-2.13-3.76-.46-5.73-4.07-1.57 13.53-5.07 2.68 1.07h2.3l1.68.56 1.11-.74-1.58-1.85 4.19-17.32 8.2 4.97 2.94-.93 4.26.63 2.9-2.51-.46-4.9.41-3.69 4.51-1.88 2.27-1.14.87-2.25-.49-1.21 3.09-2.14h3.34l.48 1.2 2.73-1.61.32 4.2 1.99 3.03 4.23 3.49 3.95.11 1.07 1.5 2.38-.45.58-.11 8.45 9.72-1.17 6.78-2.53 3.9 2.77 3.94 16.27 1.42 9.95 5.97h2.84l4.18 4.25.79 2.94 4.4 7.12 3.93-1.24 14.92 2.12h17.59l3.6 4.05 12.13 3.24 4.72-1.63v1.76l3.62.86 13-6.72 18.1-.78 6.68-2.33 1.52-3.82 4.05-2.44 5.6-2.29-5.27-6.45 4.09-4.48 2.69-.13 2.12 2.23h7.3l4.28-1.99 1.85-3.49 6 .92 6.87-2.71.08-1.49.02-.33L147.6 51h3.79l2.45-2.69 1.76 1.02 2.62-2.25 3.59.7 2.83-.44h4.73l.96-1.68-10.43-8.94-3.58-.8-4.13 4.14-3.08-1.23-2.84-1.01-2.44 1.75-.88.63-3.33-5.2 2.5-1.82-.47-1.13 2.29-6.31 3.57-7.56 2.28 1.29 5.98 2.3 6.5-3.33 3-.82v-1.99l-1.61-1.81 7.87-11.27 4.37-3.28V-4.1l-2.56-1.41h-2.31l-1.23-2.05 6.73-6.15h6.16l5.32-2.33h7.4l8.62 3.76 3.84-1.03 7.97 5.79 1.78 5.15.72 2.44 3.15 1.75v5.11l3.32 4.98v2.67l1.16 1.83v3.25l7.87 2.99 1.57 1.71 5-1.33 3.5 4.02 2.4.37 1.59 4.57v3.83l.88 2.63h9.59l5.36-3.52 1.94.18 7.31-2.96 2.67 2.19v2.91l1.62 3.44-4.84 3v2.82l-2.86 6.02-2 4.01-1.29 2.77-1.52.83.42 3.97-8.91-2.46-5.5 2.4-1.19 1.6 2.39 4.79-.84 2.74v3.12l1.14 2.65-3.03 2.63-1.57 1.57-.67-.19-3.54-.13-.51-2.19-1.77-1.63-.38 1.45-1.38 4.26h-2.11l-2.55 4.21h-6.82l.43.4.86 5.33-6.38-1.36-3.88-3.67-1.08 1.01v2.58l-3.88 5.46h-2.48l-1.46 2.03-3.09.69-3.95 3.18-1.56.58-.87 2.74-1.35.7-3.72-.17-3.85 1.42-2.69 1.07-2.2 2.43-2.24 1.36-1.48.44-.4 1.35-6.37-.33 4.76-4.59.47-.41-.96-.1-3.12-1.2 2.77-2.51.29-1.17 2.01-1.45 1.64-.68.99-1.96.18-1.05-2.05-1.24-2.59-.35-1.68.04-2 2.34-2.91 2.9-2.93 2.18-2.51.05-1.21 1.04-2.03 2.43c-.23 1.55-.42 1.85-.63 2.06-.13.13-.3.3-2.84 1.48l-.19.09-2.18.06-1.19.49-1.92-.93h-.85l-1.8 2.96 2.72 3.02 2.34.28 1.4.03-.14-2.86 3.43 3.68 1.78 1.71-.13.56c-.4 1.76-.6 2.13-.79 2.34-.04.06-.14.24-.27.51l.65 2.05h2.31c.16.03.46.06.7.07.49-.51 1.59-1.6 3.28-3.27l2.61-2.42 2.93.14 3.35 1.83 1.01.87h1.33c.19-.01 1.47-.21 3.05-.48l.16-.03 2.96.44-.6 1.43 1.2.69.05.04c.32.23 1.06.88 1 1.73-.03.48-.32.91-.79 1.16-.18.1-.3.19-.39.27l.09 2.15-3.18-.38-1.69-.61-1.27.66-1.99 1.33-2.51.27-.81.77-1.06 1.29-.42 2.58-3.25.23-.53-.03.22.43-2.64 2.57-3.74 3.53-.75 1.16.05.88 1.04.47 5.04 2.37 2.46 2.9.4 1.69.21 2.04 1.57.47v1.81l.85 1.43.2 1.55v1.93l1.61.89 1.61.8 1.05 2.03.2.98 2.36 1.18 2.56 2.56-3.85 1.28-2-1.22-1.56-.43 1.9 1.37 2.02 3.26 1.71.26-.61 2.9-3.52.13-2.85 2.19 1.02-.44 2.84 2.1 1.3 1.2h.11l-.08-.37 1.08-3.11 3.44 3.55-1.95 1.56-.21.05-.35.7-.66.74 1.26.09-1.12 2.62-2.71.42-.51.52.84.42 1.11 2.41-.93.94.72.55-.84 2.11-2.26 1.61-1.57-.65-1.29 1.04-.66 1.97.36.74-1.24.87-.05 1.48-3.36 2.95-1.46 2.58-.5 1.64-1.91.73.66 1.42-1.33.46 1.03.59-.54 2.46-.15.09 1.64 1.51-3.74 4.1-.33-1.54v.24l-2.31 1.15-.46-.3v.07l-.13 2.47-.08-.03.03.07-1.74 1.64-3.35.21-.42-.31-.25.96-3.14.99 1.77.37-2.09 2.57h-2.08l-.69.43-.36 1.99-.9-.05h-.45c-.21.26-.62.76-1.53 1.78l-1.01 2.91-5.97 1.18-1.43-.76-.27.36-2.16 1.18-.54-.66c-.09-.11-.18-.22-.28-.32-.28.15-.65.35-1.01.55l-1.59 1.68-1.61-1.74-.39.1-.34.16-1.33-.44-2.93 1.02-.68.02-.49.55-.15.08.04.05-.42 2.27-2.71.24-.69.41-.83 1.18-1.26 1.35-1.68-.53h-.01c-.33.52-.53.75-.86.8-.03.02-.06.03-.08.04-.2.19-.46.29-.73.29-.49 0-.86-.21-1.57-1.37l-1.08.29-1.62 1.51-1.55.36-.33-.34-.28.27-2.34 2.05-1.94-1.23-.09-.08c.04.19.03.37-.02.56-.1.37-.43.79-1.06.86-.38.04-1.03.22-1.54.37l-.53.42.84.12.62 2.05-.18.96.43 2.04-3.62 1.32-3.02-3.16zm79.01-72.01l.03-.03h-.06l.03.03zm76.28-52v.37l.55-.18-.55-.19zm-1.35 20.06l-.31.57.3.56 1.1-.35.86 1.03 1.74-.6.23.18 1.79-.49.93 1.4.6.09.33.45h.5l.03-.58.51-.19.53-1.79-.22-.59 1.08-.66 1.06.24.33 1.26.79.07.84-.7 1.59.08.28-.54.97-.23.1.31.92.35.58-.52.58-.11-.19-.67.65.34.54-.39.37.85.58-.47.42.44.87-.35.03-.66.77.07.81-.62.08-.52 1.26.2.34-.81.35.63h1.69l2.14 1.27 1.43-.58.84.19.23 1.09-.98 1.08-.65.53-1.04.63.87 1.2-1.07.69.26.47-.26 1.15 2.1 1.36-.41.38.54 1.18 2.1 1 .26-.38 1.22-.42-.09-1.08.99-1.56 1.19-.6-.06-.81.55-.24-.04-.85 2.44-.78 1.91.2.3-1.44h-.49l-2.37-1.4 1.03-3.12 1.4-.38-.14 2.37.48.21.5-.72.95.69.7-.73 1 1.11-.66.03-1.57.25-.41.76 3.69-.53 5 .92-.26-.54 1.84-3.27 1.65-.81 1.11.91-.75.27-.41 2.73.69.72 1.01-.37 1.25-2.29-.61-1.06.77-.83-.11-.71 2.49-.54.79 1.18.93-.8-.78-1.47 1.19-.54.05-.99.51.24.94-.62.67 1.03-.72 1.02-.85.06-.64.94.6.77-.39.36-.05.84-.56.92.89.75 1.89-1.71 1.53-.85.19-2.41 1.88-1.52 1.19-.37-1.88-4.44.32-1.35 1.38-3.9 1.13-.37.9-5.54-.76-2.15-.39-1.94 1.1-2.24 2.37-.07.49 1.14.23-.79-.37-1.2.33-.41-.33-.89.53-1.71.62-.15.36-.98.7-.27.17-.86.6-.78v-1.3l1.06-1.25-1.08-.86.34-2.9-1.16-1.55.08-.49-1.06-2.35-.97-.42-.54-2.82.61-3.44-.14-.82-1.62.04-1.98-1.27-.89 3.35 1.72-.13 1.12-.88.33.98-.37 1.36-.46.86-1.33-.92-.5.03.02.74-.65.36-.37-.33-.08-2.18-.53-.58-.56.28-.88-.52-.6.97.37.29-.35 2.44-.35.34-1.22.18-.95.86.52.5-.19 1.01.54.85-.09 1.13-1.28 1.84-.93-.05.28 1.06 1.16-.19.9.9-.18 2.86-1.07 1.57-.39 2.85-1.84 2.5-1.4 4.17-3.51 2.22-1.48 3.15-2.6 1.83-1.05.06-1.11.71-3.2.97-.15.9-1.35.57-1.52-1.07.76-1.45-.3-.49-.63.41-.49-.13.08-1.49.83.32 1.6-.47.13-.99.83-.62-.53-.44-3.44.96-1.23 1.98.72.61.15.81-.34 1.72-2.4 2.8-2.03 1.27.01.47-1.38 1.64 1.07 1.66-.24.95-.3-.65-.47.14-.2.71-.78.54-.69-.37.17.97-1.11.03-.77-1.03-.92.14.43.72-1.27-.48-.37-.35.98-.83-.48-.75-2.58.78-2.31-.56-2.02 1.14-3.12.06-1.39-.29-.7.3-.72-.04-.59-.86-1.08-.33-.86.51-2.3.29.25.49-.05.96-1.48.42-.79.84-1.81.93-1.8 1.78-1.26.41-.72-.01-1.51 1.41-.1.49-1.42.18-.35-.6-1.09-.3.34.84-.63-.09-.52.39.3.68-.38.48.31.42zm-1.88 1.15l-.19.49-1.53.25-.38 1.5-.88.51-.45-.85-.8.51.3.57-.77.4-.5.11.08-.52-1.04-.19-.48 1.27-1.55-.33-.16 1.51.78.32 1.72 1.38-.03 1.18-.86.15-.09-1.02-.8-1.14-.53 1.68.58.47.39 1.01-.41 1 1.18-.46v-.74l1.95.35-.36.48-.15.74 1.49-.56.27-.54-.46-.77-1.26-.12-.14-.48.76-.79-.11-1.08.74-.49.94 1.04-.15 1.43 1.22 1.03.02.77-.57.83.96.05-1.23.79.16.73-2.05 2.27-.87.37.13 1.3-.51.88.98 1.4-.59 1.79-1.12-.19.56 1.49 1.66.42.41.57.58-.11.58-.63-.72-.45-.24-1.23.18-.73.55-.97.81-.26.57.64-.44.53-.28.57.54 1.24-.7 1.78-.54.39s-.08.49-.14.57c-.06.08 2.24-.66 2.24-.66l.97-.69.35-.45-.64-.86.74-.43 1.6 1.02.36-1.61.69-.63.46-3.06 1.48-3.15.78-.62-.27-.62 1.29-1.07v-.8l.85-.18.4-.78-.92-.85.23-.79-.57-.17.77-.95-2.5-.27-.04-.83 1.15-.3.09-1.68-1.2-.75-.73.74-1.81-.67-.88-1.59.42-.59-.26-.4-.11.05-1.2.27.22-.54-.98-.19zm63.46-64.07l-1.19.25-.33 1.59.98.18.54-2.02z"/><path d="M-138.85 339.19l-.79-6.29-3.78-6.72v-3.6l-7.17-11.53-1.23-5.29-6.97-16.04-2.58-8.08v-4.4l-2.44-5.65v-4.13l-2.13-6.04 1.69-5.53.21-3.34-2-3.02 1.4-1.67.94-.66h-1.12l-1.09-.37v-4.3l-1.08.19c-.3.42-1.1 1.51-1.38 1.97.03.24.49.9 1.01 1.41l.13.13.26 2.59-1.56 2.6-9.5 3.61-4.77-4.42-3.99-3.77-3.45-3.11-2.08-2.36 1.74-1.09.29.29c.22.22.51.45.65.51.56-.11 3.89-1.07 6.02-1.71l1.97-2.09-.1.04-3.61.85-.94 1.34-5.09-3.15-3.7-3.03-1.78-1.78 4.25-1.75.22-.74-.87.26 1.05-3.31 3.81-.12 2.66.89h1.71l2.91-1.12 3.38 1.09.93-1.14 1.66-1.35-1.92-2.87-1.22-3.43-1.37-2.19h-1.74l-.83-1.11-.49-5.32-3.2.55-1.32-4.41 7.2-7.36 2.54 3.6 8.03-2.97 2.98-5.46 5.99-3.99 3.75-5.75 2.93-1.12v-3.78l3.97-4.71-1.01-3.27 5.62-3.89-2.26-1.12-2.95-1.98h-3.05l-2.57-4.87.76-4.28v-1.88l-2.62-1.79 1.68-2.69 5.6-2.04 6.25 2 9.33-1.47 2.89-6.34 1.1.2h2.9l2.15 2.97 2.68-.52 6.52-4.49 2.45 2.45-6.96 7.07 3.2 2.54-1.1 1.35-1.1 1.9 2.6.87-.46 2.51 3.82 4.94-3.57 3.46-2.01.83-3.1-2.46-.55 1.56 1.97 3.17.85 4.8 1.46-.63 1.92 2.15 4.63.68v1.97h1.69l.8 1.14 5.16 2.02v1.88l-3.03 2.02-.81 1.95-.84 1.51-1.17 1.84-1.52 2.13 4.63 1.44 1.81 2.14h1.81l2.21 1.7 2.11 1.95h2.15l3.7 2.47 2.45 1.85h1.78l1.45-1.19 2.47 1.15 1.65-1.87 5.38 1.97v2.99l4.07 1.42 1.56-1.37 3.06 2.78h3.3l2.49 1.44h1.99l1.8.98 4.73-1.47 2.61-1.54-2.74-2.9 1.86-6.35 2.39-1.31 2.14 3.57-1.03 1.35 1.68 1.57-.89.89.39 1.43 3.77 1.77h4.03c.11-.05.53-.31 1.97-1.55l.32-.28 1.95 1.54 6.1-.27 2.66-1.19 1.41.99 1.38-2.71v-2.1l-3.67-1.47 5.42-1.8 4.65-4.77 4.1-.78 5.35-5.24 4.47 1.12 5.8-2.56 3.04 2.22v1.93l1.85.23-1.58 3.74 1.37.88 3.38-.23-.28 1.83-1.21 3-.42 2-2.89 2.12.19.68 1.4 2.5-1.52.17-1.5-1.61-4.47 1.05-1.51 2.24-1.68.87-1.05 1.37-1.82.57-.39 1.48.9 2.49-1.18.97-.06 2.27-2.16.62-.8 1.72.99 1.51-4.49 7.03-4.28-.84-.34 3.38-1.46.21.07 1.66-.55 1.47.81 2.2-.89 1.09-.94 1.47-1.91-1.11.92-2.77-1.54-2.51-.32-4.43-1.3-.09-3.5 4.52-2.52-2.64-.12-2.64.82-2.76H-29l1.44-1.18.11-2.48 2.49-.87-.68-1.85-3.43-.97h-12.96l-.72-2.27.65-3.89-1.24-.57-2.4 1.26-1.4-2.33-1.29-.89-1.14 1.03-2.22-2.78-.93.74-.77 2.32-2.1 2.1 3.25 2.62 2.82.9.77 2.32h-3.64l-3.3 1.81v2.65l3.17 1.16h1.39l1.23 1.72-1.14 1.83v3.73l2.25 1.47-.92 2.41.88 3.07v3.11l-.48 2.48-2.37-1.36-.57 2.11-3.47.67v-1.38l-2.3 1.19-1.87 1.61h-2.9l-.65 2.31v2.54l-4.98 6.49-4.45.94h-.95l-1.07 1.07-8.53 8.97-6.15 5.84-6.36 2.36-.67 5.69-3.51.88h-4.53l-.87 3.71-3.84.52-2.35 2.21.52 4.77.73 1.82-1.24 2.26.55 2.64-.46 1.02 1.23 1.03-.6 6.65-1.92 1.59-1.45 5.11 1.21 2.42-1.3 6.4-2.69 1.34-1.21 1.28-1.5 2.98-.5 1.73-5.86 2.65-1 4.23-5.76 2.08-5.9-5.55zm381.76-172.66l.55-.16.91-.9.16-1.48-1.08-.33-.83 1.7.25.38.04.79zm39.51 247.82l.47.81h1.63l4.07 1.71 2.66-.34 1.73-.27v-.65l-.94-.45h-3.13l-1.21-.48-5.28-.33zm-3.24-263.87l-2.17 2.12-.06.55.26.59 1.37-.53-.01-1.36 1.01-1.13-.4-.24zm-1.48 259.85l.89.87.51-.68-.7-1.23-.7 1.04zm9.72 0l-1.96-2.61-.89.51-.52-.51h-2.47l2.04 1.57.71-.41.56 2.53 2.34.37 2.1-.79-.89-.75-1.02.09zM245.1 127.57h-.92l-.22 1.16h.96l.18-1.16zm.98 37.69l.35-.85-.56-.31-.73.21-.42.45.2.55 1.16-.05zm-38.77-41.46h-2.75l.71-.84c.22-.26.48-.58.61-.74-.01-.08-.04-.18-.08-.3h-1.56l-.34-1.03-.52-1.83 1.22-1.37 2.74-.89.78-.71-.47-.58-.85-2.54 1.36-1.47-.75-1.06-1.71-.95-1.46-.25-1.51.12-2.86-2.07.87-2.75 1.83-.69 4-3.22 2.96-.66 1.53-2.12h2.47l3.46-4.86v-2.68l1.95-1.83 4.3 4.07 4.9 1.04-.61-3.78-1.84-1.71h8.55l2.55-4.21h1.96s1.18-3.64 1.18-3.65l.73-2.82 3.03 2.79.42 1.8 2.99.11.48.14.16 1.42.85 2.3-1.27 1.71-3.23-.11-2.59 3.17-1.88 1.48.07 1.22 1.79.11.08 3.18-1.43.27.24 1.53-2.98 3.05-1.99.06-.63.67-.2 1.53-2.31.13-2.54 2.06-1.51 1.09-1.64.12c-.68.21-1.49.51-1.69.65a.63.63 0 0 1-.49.24c-.1 0-.35 0-.78-.43l-.54.52.69.48.92 3.79 3.63 1.23 1.6 1.8.77-.21.35 1.02-4.05 3.05h-5.09l-3.37 2.72-2.6 2.93-.35-.17c-.26-.13-.59-.32-.8-.45l-1.79.52-1.26-1.26-.99-.49-.62.82-.81 1.18-1.29.43-.72-1.79zm52.41 30.92l.8.1.68-.46-1.11-.31-.37.67zm-18.16 261.97l.21.37 2.96.84.69-.47.59-.22-.16-.68.78-.34-.96-1.03-.13.03-.84.25h-1.56l-1.58 1.25zm2.24-235.18l.03 1.46 1.09.28 1.02-.99-1.18-1.2-.96.45zm1.71 223.01l.87.14.86.28-.11.39 1-.21-.12.63-1.56.14.07.82h1.61l-.47-.79.89.11.98-.02.37-.61-1.52-.32.7-.4 1.2.93 1.33-.39.65.39.87-.79-1.64-1.36-2.76-.7-1.12.56 1.15 1.34-1.8-1.52-1.21.44-.24.94zm2.59-223.01l1.34-1.97-.23-.98-1.31.98-.29 1.2-.61.69-.11 1.09.99.03.22-1.04zm13.38-28.19l.96-.47-1.05-1.05-.42.53.37.33.14.66zm4.64-1.36l-.71-.03-.07.68 1.52-.44-.74-.21zm9.05-1.16l-.03-.56-1.37.43.13.61.51.36.76-.84zm-.55 200.01l-.89 1.59s1.21-1.26 1.35-1.4c.14-.14 1.21-1.12 1.21-1.12v-1.12l-.37-.61-.84 1.73-.47.93zm-15.95-192.02l1.24-.76.71.37-.3.97 1.14.33.22.55-1.02.51.09 1.55 1.39.77-.74.63.15.3.38-.09.75.6 1.36-.18-.12-.52.49-.31.22-1 .22.01.44-1.24.91-.06.17-1.64 1.22-.17.19-.46 1.91-.4 1.57.39 1.03 2.1.6-.03 1.07-2.8 2.86-1.35-.28-.42.4-.62-.81-.83.29-1.23-.39-.46-.87-.16-1.11-.36-.01-.47-.88-.59-.51.27-.75-.28-1.73.87-.43-.16-.4.29.29.67-1.05 1.27-1.42-.35-1.25.6-.42-.91-1.04-1.09-.05.6-.87.52-.94 2.1-5.15 2.47 1.23.2zm119.17 252.98l1.83.88h1.55l-.22-1.52.22-.88-2.16-.63-1.72.39.5 1.76zm43.84-394.44c.59-.08 2.62-2.03 2.62-2.03s.76-2.11 1.01-2.28c.25-.17 2.96-1.1 2.96-1.1V10.1h-1.18l-1.86.89-1.18 1.69-2.62 1.94h-2.03s.08 1.86 0 2.11c-.09.25 1.69.68 2.28.59zm-33.43 401.64h.61l.5-.44-.78-.69-.33-1.81s-2.1-.88-2.27-.88-.66.29-.66.29l1.33.93v.83l.61.88 1-.29-.28.39.28.78zm-245.99 9.49l.42-1.45 1.31-1.07-1.07 1.31-.47 1.54.47 1.12.14 1.92 2.06-1.54-.33-1.31.79.28v-1.87l-.69.22-.22.95-.19-2.37-.34-.06.25-.83-1.04-1.03 1.4.2.62-1.46-.61-1.34 1.2-.45.81-2.74-1.57-.14-.37-.06 1.03-1.31-.51-1.26h-.61l1.35-1.12.23-1.08 2.06-.7 1.54-1.12s1.17-2.62 1.5-2.76c.33-.14 2.66-.28 2.66-.28l-.56-.84 1.07-1.87-1.03-.23-.51-1.4-.14-2.99 1.68-2.29v-1.68l1.73-.65.75.56-.79-2.34 1.36 1.77 2.85.37 1.54-.42.65.56 1.64-1.82-.56-.51-.75.14-1.02-1.82-4.77-2.71.42-.61-1.5-.19-.56-1.54 2.15-1.45-1.26-1.73-1.07-2.05-1.03-.28.75-.61-.84-1.4-1.78-.33-1.03-.56 2.06-.75-.51-.89-.62.18-.99-.4.99.09.86-.18-.6-.63-1.44-.22-.15.57-.18-.69.55-.09 2.89.16.78-.55-.54-.54 1.12-.26-.16-.49-1.7-.3-.47-.65-.56-.93 1.1 1.03.21-.89.02.93 1.19.09-.02-.77.49.51.98-.21-.65-.93-1.52-.68-.33.23-.22.23-.12.05-.21-.08-2.34-.86-4.49-.37-1.84.43h-.09l-1.65-.41-.86.69c-.07.06-.17.05-.24 0l-.75-.64-2.16 1.82.41 1.57v.08l-1 6.17c-.01.09-.09.16-.18.16h-1.37l-1.05 2.43.86.25s.06.03.09.06l.5.56s.05.1.04.16c0 .06-.05.11-.1.13l-3.78 2.04-.44.43 1.04 1.62s.04.1.02.15c-.01.05-.05.09-.1.12l-.98.46-.85 3.16c-.03.09-.12.15-.22.13l-1.83-.37-.65.12h-.09l-1.57-.52-1.79 1.97a.19.19 0 0 1-.19.05l-5.23-1.5a.165.165 0 0 1-.12-.11.22.22 0 0 1 0-.16l.48-.91h-4.32l-2.13.95-.6 2.03c-.02.05-.05.09-.1.12l-3.12 1.43s-.09.02-.13 0l-2.39-.74-3.15.36-.27.65c-.02.05-.07.09-.12.11l-1.81.5h-.05c-.05 0-.09-.02-.12-.05l-5.98-5.29s-.06-.09-.06-.14v-1.23l-1.24-.39s-.09-.05-.11-.1c-.02-.05-.03-.1 0-.15l.4-1.1-1.43.24-.42 1.92-1.54 1.26v1.03l-1.07 1.48.23 1.5-.47.95.23 1.56.51.77-.05 1.17.93.98.84 3.11h-1.4s.65 1.88.79 2.21c.14.33 2.24.51 2.24.51l-.37.47h-.98l.23 1.54h.75l.37-.37 1.4.7s-1.4.19-1.4.33v2.48l3.36-1.63.23 1.03.89.61v2.52l-1.54.89 1.54 1.12.7 2.06.37 1.91-.47.79.09.56.37 1.92 2.66-.7.37 1.73h2.99l1.96-1.51 1.59.9 1.21-1.49 1.07 2.48-.7 2.85h.7l2.43-1.63 2.38.7 3.36-1.68-.47-.61.84-.79s2.01 2.06 2.15 2.06 2.29-.84 2.29-.84v2.34l3.74-1.21 2.76 2.01.47 4.58 8.41-4.07 1.17-.79zM382.12 53.5l-3.3 2.37v2.2s2.45-.68 2.62-1.01c.17-.34 1.94-2.7 1.94-2.7l2.96-2.11s1.01-1.69 1.1-1.94c.08-.25.51-1.77.51-1.77l-2.2 2.7-3.63 2.28zm-12.93 5.49l-1.01.93-2.87 1.97-2.2 2.01-.93 2.7 2.03-.93s2.2-2.61 2.45-2.95c.25-.35 4.65-1.95 4.65-1.95l3.04-1.1-.42-1.01-1.18-.59-2.87 1.86V59h-.68zM236.27 160.48l-.11-.62-.67.63.32.29.46-.3zm-.74 1.5l-.03-.55-.68-.7-.44-.05-.75 1.15.81.48.48-.33h.61zm-70.98 165.19l-.7 1.17v.75l-.85.56-.28.79-.7.37-1.59 1.73s-.47.56-.61.65c-.14.09-2.99 3.04-2.99 3.04h-.79l-1.31 1.31-.84.42-2.62 4.16-.33 1.17 1.45.56-.08-.53-1-.69 2.09-1.37 1.54.25.99-.42-.47-.72 1.86-1.94.26-1.4 2.03-.21 2.03-2.94.98-.26-.4-2.22.77-.58 2.88-.47.02-1.82-.93-.3 2.43-.19 1.28-.65.84-.16.56.54 1.4-.89-.65-.96-.96.4-.14.7-.89.02-.23-1.07-.33-1.12-1.64.65v1.03l-1.31 1.36-.79-.7zm73.34-128.62v-1.71l-2.32 1.32v2.11h1.77l.55-1.72zm-9.19 10.91l-1.55 1.11v1.11l-2.99 2.77h1.11l2.32-1.55-.11-.95 1.77-1.49-.55-1zm8.77-50.99l-.81.84.69 1.11.51-.97-.39-.98zm-11.86 238.22l.47-.51.88-1.31 1.64-1.92.37-2.74-1.07-.29v-.42l1.4-2.39h-1.21l-2.57 3.37-.14 2.1-.94 1.45v1.17l.66.37.51 1.12zm8.22-11.65l-1.18-1.06-2.31 2.06.56 2.05 1.75-.37 1.18-2.68zm-23.82-.57l.42-.49v-.74l-.19-.82-.73.79.5 1.26zm0-7.78l1.12.44-.25 1.34h.87l-.16-1.15-.71-.84v-.63l-.87.84zm3.36 40.03l.44.84-.37.31 1.22 2.65.22-.25-.5-2.09-.06-1.49 1.65-.12.97-.81-2.83-.09-2.68.28-.81-.09-1.87-.4-.34-.63-.97.63-3.55-1.1-.9.62-.4 2.58 1.68-.16 1.49-1.03 1 .28s2.37-.4 2.71-.4.75-.3.75-.3v.67l3.18.09zm-30.93-153.77v-1.43l-1.62.56 1.62.87zm35.79 110.85l1.07 2.19v-1.72l-.56-.24 1.12.14.16-.86.56-.66.37-.23-.26-.85.26-.52-.44-1.06-.69-.33-.84 1.71.42.84.98.56-1.03.8-1.12.23zm-33.11-109.91l-.56 2.36 1.04-1.18-.48-1.18zm-2.22-40.31l1-1.32-1-1.17-4.15 1.5h-2.33l-1.99 3.98-2.66 3.49-1 5.32v4.61l3.82 3.2.33 2.93 1.17-.77.74-2.83 2.91-4.65 1.5-4.26-.34-2.72 2-2.99v-4.32zm-15.13 100.09l1.08-.09-.61-1.4-.09-1.36-.38-.42-.75.7v1.36l-1.4 1.07.4 1.54 1.42-.33.33-1.07zm40.77-11.51l-1.15.69-3.46-.2-1.99-.48 1.24 3.41 1.12-.14 2.15 2.83.87-.12s-.75 1-.78 1.09c-.03.09-.69-.44-.69-.22s.37 1.74.37 1.74l-1.37.75-1.78-1.4 1.55-.03-.3-1.12-1.25-.81s-.75.16-.75.28.72 1.34.72 1.34l-.9.16.81 4.58h.72l.47-.84 1.59 1.42-.62 4.22 2.46 1.15v-1.68l1.37 2.71.37-.34-.97-1.53.09-.78 1.18.06v-1.03l-1.18-1.99-1.37-.8.72-3.82 1.37 1.48 3.36-.45s-1.71-2.43-1.71-2.52.16-4.92.16-4.92l-.56-.65h-1.18l.47-1.09-1.15-.93zm-38.71-27.59v2.76l.79.56-.19 1.73.28.65-.09.75 1.03 2.01-.19 2.29 1.5.61 1.26 2.38h1.21l-.93-3.04.98-.65.47 1.54h3.32l.23 2.15 1.73.51-1.26 1.21-1.31-2.8-2.38 2.15-.75.14v2.76l2.2.51.28 1.5.7-.42.23.75h2.29l.56-1.73 2.01-.51.33-.28 1.68 1.31 1.03 1.21 1.68.33.84 2.71h1.4v-2.24l-1.59-1.5.42-1.12-1.07-1.35 1.96 1.64.75.09v1.45l3.22 1.5v.75l.52.79-.23.61 2.57 1.59h1.68l.28 2.38 1.49.42.61-1.87v-2.1l-1.78 1.63-.65-1.03 1.59-.28-2.06-1.21.28-1.03-1.49-1.5-.05-1.31 2.15-.19-.23-.79-2.15-.94h-2.15l-.47 2.06-1.45-.89.61-1.59-2.06-2.62-1.59.33-.7-.09-.89.42-.14 2.48-.84.93-3.08-2.34.09-1.59-1.03-1.21.42-.93.61-.42-.37-2.01 1.17.98-.33 1.21 1.45.37-.63-1.4.86-1.31-1.54-1.12-.51.79.61.98-1.12-.84-.93 1.35.09 1.07-.56-2.24-1.26-2.43 2.06-2.52s-.65-.93-.7-1.07c-.05-.14.75-1.63.75-1.63l2.85-1.45-.28.79 1.07-1.17.47-1.54 1.73-3.36.05-.56.51-.37-.42-.56-.65-.05.33-.98-.33-.47-.84-.09-.89-1.73-.05-3.88 1.63-1.45-1.45-1.87-.84 1.12-1.17.8-3.78-1.03-1.45-2.1-2.19.98-.37-.49-.8.77h-.93l.37 1.77-.79.75-.89 3.97-.65.42.28.98.84.47-.05 1.36.05 2.1-1.12.84v3.97l.79 1.21-1.26.65-1.17-.51-1.17-.7v-1.31l-.93.51zm68.97-134.3l1.14-.22.62-1.32-.42-.38-.11-.01-1.23 1.93zm-.34 253.19l1.03.89.79-.33-2.1-1.44.28.88z"/><path d="M213.79 150.95v-1.96l1.55-1.5-1.17-.39-.17-1.39 1-1.55-.14-1.1-.08-.91.91-.91.69-.53-.21-.75.23-.21c.71-.65 1.02-.69 1.15-.69.05-.01.16-.05.29-.11l-.08-.14-.47-.59-1.57.14.26-2.4.83-.59-.31-1.1-.54-.64-.39.78-1.61-.4-.38-2.21-.58-1.4 1.97-.63 2.23-.18.59.23-.36-.97.83-1.02-1.37-1.32.17-.34c.06-.13.13-.28.16-.37-.05-.14-.18-.44-.31-.74-.11 0-.23-.01-.36-.02l-1.07-.05 2.79-3.16 3.5-2.82h5.1l4.04-3.05.91 2.73 1.96 3.26 3.03 4.54 1.87 5.95.15 3.21 1.13-.06-.85 4.67-1.51 2.37.24 2.3-1.52.65-2.4.88-1.77-.24-.06.15.27.65-.51 1.53h-1.71l-.74-1.27-.46.09-.14.86-1.96-.49-.7-.48-.77.44-.87 1.44-1.31.38-.46.92-1.31.22-.6-1.31-.32-.04-.38.68-1.75 1.3-1.89-.29-.79.34-1.89-.39zm15.93 248.4l1.26.84h1.68l.89.8 1.17-.05-.89-.75v-1.4l-2.33-.47-1.16-1.16 1.75-1.17h1.46l.84-2.52-.56-.98.24-.99h-.52l-2.01.4-2.24 1.94.51.89-1.26.33-.51 1.02v1.03l-1.78-.42-.84 1.17v2.47l.89.38-.14 3.69 1.59 1.03 1.26 2.47 1.32.24.88.74-.33-.84-2.8-4.67.23-3.97 1.4-.05zm10.17-214.18l-.68.35.74 1.06.62-.68-.68-.73zm.79-37.15l1.24-1.12.32-1.37-.39-.4-1.35.95.13.75-.52 1.1.57.09zm-42.57 178.75l-2.4 3.81-.75 4.97-1.34-2.12.44-1.96.72-1.4-.07-1.9 2.25-2.09.13-1.24-1.82-1.53-1.02.38-1.81.09.25 2.3-.94 1.34.19 2.25-.93.91-2.18.3-.47 1.9 2.05 2.46 1.25.41.41 1.96h1.27l1.81-.78.15-1.68 1.06-1.06.94-2.31.34-1.2.78-1.29.97-.53.93-1.34.28-5.95-.78.35-1.71 4.95zm-27.65-10.22l.51 2.15s.96-.89.96-.96-1.21-1.35-1.21-1.35l-.26.16zm31.67-14.42l-.44-1.12-.72.16v2.02l-.81.97.81.71 2.25-.68-.22-1.62-.87-.44zm-32.63 64.43l3.18-.98v-1.22l-3.18 1.78v.42zm10.63-6.64l-.4-.7-.98-.28-1.26.77.21.63 2.08-.44.65 1 1.1-.49.09-.49-1.33-.6-.16.6zm1.75-49.14l-.09-2.9-2.06-2.06-1.31.28-.65-.89-1.82.47-1.87-.47-.56.65v.42l.89-.54.47 1.19 1.78 1.12.37 3.13s.37-.28.47 0l.7 2.2.79.7v.51l1.4.23.75-1.21.28-.98 1.5-.79-1.03-1.07zm-31.74 39.96v.94l1.54-.59.16-1.07-.49-.14h-.65l-.56.86zm22.86-33.2l.77-1.44-.49-1.12-.56.47-.8-.16-1.31-1.68-.16 1.52 1.47 1.49.3-.23.28-.77.28 1s.19.96.21.92zm50.79 90l-.59-.1-.28.23-.07 1.07 1.02-.06-.08-1.14zm-73.73-63.31l-1.11.6.6 2.13.96-.87-.14.13-.31-1.99zm35.3 10.74h-1.19l.12.61 1.17 1.42 1.37-.35.89-1.1.44-.37-1.82-1.07-.98.86z"/><path d="M186.4 318.33l-.8 2.89.46 1.91-.81.99.35 1.59v2.09l2.07-1.97 2.15-.15-.9.84.19 1.68 1.55-1.15.6-1.12-1.16-.5.97-.36.25-1.63 2.55-.91.28-1.4-.28-1.46-1.21.9-.84-1.37-1.16.97-2.3-2.28-1.5-.12-1.43-1.39-.99 1.32 1.96.63zm4.26-4.73l-.28-.96-2.18.27 2.06 1.65.4-.96zm-6.16-8.9v1.92l1.1 1.07 1.14-1.49-1.14-1.5h-1.1zm26.38 23.56l-.66 2.03 2.31 1.62-.69-2.53.47-1.96-1.43.84z"/><path d="M211.59 334.13c.02-.21 0-1.54 0-1.54l-1.17.16-.68 1.73 1.85 1.7-.75 1.87s-1.94-.58-2.01-.61c-.07-.02-.75 1.99-.75 1.99l-2.71-1.38v2.83l-.86.56-2.13-.07-.7 2.06s-3.75 1.82-3.98 1.98c.15-.15 1.6-1.72 1.6-1.72l-.63-2.22-1.75-.86-.42-.49-.93-.21s-.89 1.45-1 1.47c-.12.02-1.94.26-1.94.26l-.51 2.38-4.09 1.03-1.86 1.12.2 1.26-.39 3.18-.95.7v1.12l1.89.7s.47-1 .47-1.26-.02-1.31-.02-1.31l1.05-.82.26-1.42 1.26-1.54.89.19s.44 2.15.44 2.38 1.14-.42 1.14-.42l.86-1.73.26 1.54h1.05l1.38.89-.35-1.33.96-.75-.19-1.17.68-.35 1.24 1.47 2.52 1.73.61 1.35-1.56 1.24-.02 1.73.58.86.26 2.85 3.06 2.17 3.95 1.19 1.05-1.33.44.93-.49.98.58.65.47 1.1 2.83-3.67-1.01-2.99-1.4-.96-.16-1 1.87-3.32-.14.75 1.05 1.66.61-.72-1.42-2.01.91-.72 1.36 1.28.14 1.75.68.56-.02 3.32 1 1.07.14-3.86h-.63l.37-.58.02-.75 1.12-.02s-.05-.49-.05-.56 1.35-.96 1.35-.96l.49-3.74-1.85-1.31.96-2.38-1.26-1 .12-1.43-1.31-.07-.3-.7 1.71-.98.12-1.17-1.19-.47-.17-2.22-.77.7-1.12-1.68.21-2.62.14.79s1.61-.4 1.71-.44c.09-.05-1.08-1.94-1.08-1.94l-.72.44-.58 2.59s-1.89.72-1.87.51zm-16.88-20.19l.25.62-1.09 2.24h.41l2.21-2.24 1.49 2.24 2.15 1.34.19-1.76-1.43-2.1-.56-.03-2.34-1.96-1.28 1.65zm-8.93 1.15l1.4-3.99s-1.28.53-1.56.59c-.28.06 0 1.06 0 1.06l-.37.34.53 1.99zm11.31-3.99l-.26.84 1.47 1.66.4-.5-1.61-2zm-4.84-2.33l2.71 1.87-2.38-2.95-.33 1.08zm22.38-147.6l2.77-.67 1.77-.99.67-.89-.67-.77h-2.43l-2.33.88-1.11 1.44 1.33 1zm-15.37 172.58h3.15l1.43-1.03.62-2.77s-.93.47-1.15.37c-.22-.09-1.59-.78-1.59-.78l-3.15 2.74.69 1.46zm25.43 74.64s.47.56.51.56.97-.65.97-.65l.44.92.97.08.58-1.14-.79-.5-.93.51-.64-1.18.92-.73-1.07-1.2-1.14.9-.25-.51s-.31.11-.37.23c-.06.12-.11-.81-.11-.81l-.95-.19-.47.4.31 1.88.87-.34.23-.8-.03.9 1.31.92-.34.75z"/></g><g stroke-miterlimit="10" stroke-width=".85"><path d="M32.79 246.97l-2.61-.6-1.99.23-.41-1.48-2.03-.87-.19-1.77-4.77-.34 1.12-2.89-.24-1.51.56-1.87.65-.1v-.27l-1.89.04-2.12-.94-.9-2.75.16-1.51.37-.49-.3-1.16-3.2 2.28-2.01-.09-4.83 1.97.36-3.64-1.12-.86-.08-2.37 2.76-3.59 1.47-.82.57-1.75 1.09-.03.75-1.58.83-.26-.66-1.23 1.01-.46-.17-.48.79-2.62-.65-1.57-.23-4.97-1.09-.77-.57.24-1.05-.86-.7-3.01-2.16-2.09-2.29-.92.25-1.62-2.58.18-2.23-1.44 1.42-3.35-1.47-.18v-2.25l-2.27-1.66-5.61 2.48-4.29-1.07-5.19 5.08-4.09.77-4.6 4.73-5.75 1.91-1.51-3.37h-3.28l-5.45-1.13-2.97-1.19-4.41 4.2-3.1 1.55-1.98-3.3-3.27 1.78-6.01-.81-3.62-.72v1.83l-2.82-1.09h-1.64l-1.99-2.44h-2.88l-.77-1.68-1.14-.81-2.54.66-2.62-1.83-2.1-4.1h-4.44l-1.55-3.1h-1.91l-7.97-6.03-4.42 3.31-2.25-1.61v-1.55l-4.85-1.9-.69-.98h-2.1v-2.09l-4.2-.61-1.72-1.92-1.9.81-1.01-5.71-2.1-3.38 1.1-3.11 3.65 2.9 1.39-.57 2.89-2.8-3.58-4.63.39-2.15-2.89-.96 1.67-2.89.59-.72-3.27-2.59 7.04-7.15-1.32-1.32-6.07 4.19-3.4.66-2.21-3.06h-2.53l-5.28-.94v-1.88h-6.3l2.2-3.08-2.19-4.38-3.51-1.4v-.64l-2.49.92-2.4-1.11-1.06-3.98h3.68l-.63-1.67.73-1.6-1.54-1.69.3-1.96-3.32-1.99h-2.37l-3.32-7.26 2.62-1.5v-2.56l6.15-4.85h2.46l4.71-2.16 1.26 2.7 3.61-.62 3.71-5.74h8.4l3.2-3.68 11.57-3.81-.77-5.1 3.9-4.41.14-3-2.13-3.76-.46-5.73-4.07-1.57 13.53-5.07 2.68 1.07h2.3l1.68.56 1.11-.74-1.58-1.85 4.19-17.32 8.2 4.97 2.94-.93 4.26.63 2.9-2.51-.46-4.9.41-3.69 4.51-1.88 2.27-1.14.87-2.25-.49-1.21 3.09-2.14h3.34l.48 1.2 2.73-1.61.32 4.2 1.99 3.03 4.23 3.49 3.95.11 1.07 1.5 2.38-.45.58-.11 8.45 9.72-1.17 6.78-2.53 3.9 2.77 3.94 16.27 1.42 9.95 5.97h2.84l4.18 4.22.79 2.94 4.4 7.12 3.93-1.24 14.92 2.12h17.59l3.6 4.05 12.13 3.24 4.72-1.63v1.76l3.62.86 13-6.72 18.1-.78 6.68-2.33 1.52-3.82 4.05-2.44 5.6-2.29-5.27-6.45 4.09-4.48 2.69-.13 2.12 2.23h7.3l4.28-1.99 1.85-3.49 6 .92 6.87-2.71.08-1.49.02-.33L147.6 51h3.79l2.45-2.69 1.76 1.02 2.62-2.25 3.59.7 2.83-.44h4.73l.96-1.68-10.43-8.94-3.58-.8-4.13 4.14-3.08-1.23-2.84-1.01-2.44 1.75-.88.63-3.33-5.2 2.5-1.82-.47-1.13 2.29-6.31 3.29-6.95M247.67 83.2l-.67-.19-3.54-.13-.51-2.19-1.77-1.63-.38 1.45-1.38 4.26h-2.11l-2.55 4.21h-6.82l.43.4.86 5.33-6.38-1.36-3.88-3.67-1.08 1.01v2.58l-3.88 5.46h-2.48l-1.46 2.03-3.09.69-3.95 3.18-1.56.58-.87 2.74m-24.43 75.55l.03-.03h-.06l.03.03z" stroke="#f5f4e4"/><path d="M68.73 301.55l-1.49-.66-1.77.46-1.47-1.79.35-.58 2-1.39.53-3.39-.41-1.03.49-.61-.63-1.34h1.18l.34-1.54-1.75-1.38.34-1.3-2.73-.53-.4-1.69-.56.67-.96-2.48-.43-3.53.62-2.01-1.19-.77 1.03-1.03-1.63-.87-3.07-2.43-1.14-2.12-.68.62-.75-.42-3.32-1.3-.38.23.79 1.16-.39.29c-1.15.87-2.62 1.92-3.07 1.95h-.04c-.4 0-2.45-.19-3.06-.25h-.05l-2.99-.88-1.26 1.75v-.99l-5.73 4.15-1.77-.67 1.99-5.53-.79-1.71 1.39-1.32.12-1.64.67-1.07h-.45l-.99-2.76.42-1.11-1.32-.48-1.1 1.68-1.1-.74-1.79.26-.87-1.67 1.96-3.37-1.6-1.6-1.4 1.2-1.04-2.08.61-.19v-2.26l3.36-.84v-.52l1.48-3.11L36 245.4l.59 1.83 2.78.21-.49-4.22-.37-1.93-.33-2.7 2.29-.85 1.31.81.91.04 3.95 4.66.09.81.68-.66 1.36.3.41 1.68-.85 2.81 1.97 2.37 1.55.44 2.02.63.29-.81 3.04-1.31 2.98 2.1 1.49.98-.63.43c-.94.64-1.39.97-1.6 1.14.15.16.45.44 1.03.95l2.37.19 1.01 1.86-1.6.95-.09.66-1.67 1.85-2.87-.93-.75.4.82 1-1.81 1.2 5.51 3.42 3.56 1.06-1.05 1.36 2.09 2.12.72-.23 1.08 1.57.28 1.75 3.32 3.53h.79l1.2 1.97 1.14.56.65 2.93.36.85 1.61-.75-.35 1.25 3.01 2.38h1.56l-.22 1.16-2 1.57 3.84 4.19-1.66 1.53.64 1.62-1.52 1.44-1.01.78-.95.15-1.82 1.76-2.19-2.55-2.16.85-.51.71h-.84l1.05 1.78-.74 1.3-1.52.64-1.04-1.45zm87.52 71.73l-1.4-.8-.69.53-2.81-1.04-4.45-.37-1.9.45-1.66-.42-1.02.81-.87-.74-2 1.69.41 1.55-1.06 6.5h-1.55l-.96 2.21.8.23.83.94-4.12 2.23-.34.34 1.18 1.84-1.26.59-.91 3.39-2.11-.42-.7.12-1.56-.52-1.86 2.05-5.82-1.66.56-1.06h-4.06l-2.04.91-.63 2.11-3.36 1.55-2.48-.76-3.04.34-.3.72-2.13.58-6.22-5.5v-1.28l-1.47-.47.44-1.3m39.5-20.92l.69 2.74 1.48.88-.84-3.82m-8.35 1.73l2.4 1.86.17.94.78.17 1.19 1.56 1.41-2.16-.62-.96 1.11-3.04" stroke="#f5f4e4"/><path d="M16.45 330.78l1.55-2.45.34-3.01 1.36-.61.09-.66.69-.48 2.62-3.03.26-1.92h.68l.51-.72-.67-2.38-.62-.34-.52-2.92-1.58-1.12-.66-2.9.7-1.36-1.07-4.82-2.61-2.1-3.54-4.73-.31-2.88.32-.16c1.42-.69 2.28-1.14 2.55-1.34.06-.69.49-3.62.63-4.55l.07-.44h1.52l.32-1.36h-.33l-1.3.61-1.09-2.62v-2.73h-.89L9.9 273l1.08-.68-.76-1.91-.59.29-.24-.44c-.3-.55-.56-1.04-.73-1.39l-.43-.87.87.12 1.63-.68-.24-2.53.62-1.3-.69-.62 1.14-2.36 1.33-.85.37-1.71 2.33 1.2 4.63-.81.26-2.54 2.15.42.99-.64v-1.96l2 .68 2.35-.74m15.09 104.08l-1.54 2.19v.95l-1.02 1.28-1.94-1.55-3.44 2.29-1.18-1.77.93-1.19-.4-1.99-1.57.5-.27-1.75-3.09-.38v-1.21h-.38l-.91 2.48m35.71-58.07l-1.07-.31-1.9-.28-1.35.62-6.03-.26-.22-.66-4.02 1.19-2.84 3.83-.77.44v1.13h-1.68l.36 2.09 1.14 1.33.06 2.85 1.75 1.75-.12 3.25m168.21-191.53l2.79-3.15 3.5-2.82h5.1l4.04-3.05M7.7 199.46l-.92 2.01-.42 2-2.89 2.12.19.68 1.4 2.51-1.52.17-1.49-1.61-4.48 1.05-1.51 2.24-1.68.87-1.05 1.37-1.82.57-.39 1.48.9 2.49-1.18.97-.06 2.27-2.15.62-.81 1.72 1 1.5-4.5 7.03-4.27-.84-.35 3.38-1.46.21.07 1.66-.55 1.47.81 2.2-.89 1.09-.94 1.47-1.91-1.11.92-2.77-1.54-2.51-.32-4.43-1.3-.09-3.51 4.52-2.51-2.64-.12-2.64.83-2.77H-29l1.44-1.18.11-2.48 2.49-.86-.68-1.85-3.43-.96h-12.96l-.71-2.28.65-3.89-1.24-.57-2.4 1.25-1.39-2.32-1.3-.9-1.14 1.03-2.22-2.77-.93.74-.77 2.31-2.1 2.11 3.25 2.62 2.82.9.78 2.32h-3.64l-3.3 1.81v2.65l3.17 1.16h1.39l1.24 1.72-1.15 1.83v3.73l2.26 1.47-.92 2.4.88 3.07v3.11l-.48 2.48" stroke="#fff"/><path d="M248.39 86.13l-.69-3.88 4.21-3.59-1.3-2.33v-3.07l.69-2.67-2.1-4.51 1.4-2.55 5.87-2.28 8.07 2.24-.53-3.64 2.01-1.32 5.64-12.14-.04-3 4.7-3.07-1.53-2.91v-2.55l-2.1-1.75-6.64 3.03-2.03-.54-5.65 3.68-10.02-.13L246.8 36l.21-3.95-1.42-3.6-2.36-.41-3.24-3.98-4.65 1.38-2.46-2.33-7.89-2.88v-3.68l-1.27-1.52v-3l-2.93-4.67-.35-5.01-2.98-1.66-2.38-7.85-7.27-5.29-3.78 1-9.23-3.79h-6.63l-4.99 2.32h-6.46l-6.29 5.74.52.78 2.43-.2 3.34 1.84-.29 4.62-4.43 3.3-7.47 10.72 1.38 1.23.26 3.18-4.26 1.02-6.17 3.11-6.09-1.82-1.35-1.13-3.77-2.06-4.72 1.63-1.97-1.78-6.06-2.21-7.49 4.23-.82 2.23-5.42-.04-1.76 1.8-8.17.51-3.17 2.08-4.65-1.36-8.72-.47-3.63-1.95-1.71-3.74-5.62.04-3.3-4.05-4.33.87-2.08-1.69-5.05-.15-5.66 2.24-5.91.47-3.23-1.65-2.22-.06-2.85-3.59V6.35l-.88-2.26-4.33-1.11-3.72-.39L27.25-.1l-6.53-2.76V.48l-2.23 1.45L15 7.08l.66 3.8 2.84 1.81-1.79 3.72-3.2 1.63-3.72.79-1.42-.97-3.02.5-4.32-2.47-5.8 1.38-2.87-.31-2.01-1.47V13.2l-1.78-1.69-8.41-.22-1.65-1.71-2.42.98-.76-1.07h-2.8l-1.98 2.64-4.48 1.28-8.77 3.53-1.57 2.7-4.42 1.91h-4.79l-2.4 3.54-1.37.73-3.17-4.35-1.48 1.48h-5.28l-2.4-.69-2.91-1.4-.56-3.13-4.42-1.02v-1.66l-2.64-3.64-4.64-2.21-9.76 2.24-4.45.35-.58-3.91-2.8-1.72-2.84.74v3.16l-2.84.74-13.7-21.17-1.33-2.11-9.04-5.65-.62-2.12 1.8-.89-.88-1.72-3 1.39-5.6 2.13-.91 1.36-5.61 1.35-.58 1.82-4.59-1.11-1.67 1.07h-1.73l.61-3.26 1.56-1.57v-.24l-2.98 1.06-2.68-.89-1.49 1.03-2.88-1.8v-2.8l-.44.13v1.02l-3.47.81-2.7 1.17-2.01-1.63 1.2-1.69.65-2.37-1.2-1.63-2.43-4.41-1.95.31-1.05 1.4-3.92-1.5-4.77-1-2.01 1.68h-2.08l-.44 1.2-6.74 2.74-7.47.91-6.46.89-1.8 2.36-4.25.8h-4.72l-6.77 2.71-4.52-.56h-6.93l-2.03 1.71v2.18l3.58 1.73-1.09 1.53 2.81.62 2.48 1.3v1.29h-5.6l-.78 1.33-2.13.45-.59 1.39 1.42 1.42.37 1.72-2.03 1.91-4.99.66-.09 1.1 2.89 1.44.32.88h2.42l2.15 1.67 2.76.46.56 1.67h1.39L-237.73 8l-1.14 3.44-8.53.94v-1.47l-1.17.09-1.02 2.6h-1.64l-1.14-.91-.47-.07" stroke="#f5f4e4"/></g><path d="M252.3 155.79l-.3-.11-.88-1.59.42-.59-.26-.4-.11.05-1.2.27.22-.54-.98-.19-.19.49-1.53.25-.38 1.5-.88.51-.45-.85-.8.51.3.57-.77.4-.41.09c.07.03.15.07.22.1.02.01.05.02.07.02.02 0 .04-.01.06-.02.08-.03.75-.12.75-.07.19.02.38.05.55.14.25.13.43.38.7.46.15-.25.4-.43.67-.48.07.2.14.43.09.64-.05.19-.18.33-.3.47-.08.09-.16.19-.23.28-.04.05-.08.09-.11.14l-.46.58c-.04.05-.08.1-.1.17-.02.07 0 .14.02.2.03.09.04.18.06.28l.4.45-.09.85c.15.05.36.01.51 0 .04 0 .08 0 .11-.02.13-.08.04-.3.08-.45.06-.25 1.2-.96 1.22-1.02.31.2.64.36.98.49.07.03.15.05.21 0 .03-.03.05-.08.06-.13.04-.16.08-.33.04-.49-.06-.23-.3-.44-.21-.66.06-.16.27-.28.21-.44-.02-.06-.07-.09-.11-.13a.389.389 0 0 1-.05-.4c.06-.13.21-.2.34-.18v-.54c0-.06 0-.12.03-.17.03-.06.09-.09.15-.11.39-.16.8-.26 1.22-.3.1 0 1.11.04 1.11.05v-.09z" fill="#8f5f3f"/></g><path d="M86 194h54v32H86zm39 42l-6-10h12l-6 10z" fill="#8f5f3f"/><path d="M105.93 207.75c1.51 1.21 3.51 2.29 5.44 2.88-.45.41-1.06 1.21-1.37 1.71-.5-.18-.97-.4-1.48-.65v6.86h-2.25v-.54h-6.79v.56h-2.14v-6.86c-.56.31-1.12.56-1.69.77-.32-.5-.94-1.31-1.39-1.75 1.96-.59 3.92-1.71 5.38-2.99h-4.88v-1.91h6.9v-1.26c-1.64.14-3.28.23-4.86.27-.05-.52-.31-1.33-.52-1.82 3.94-.14 8.43-.58 11.13-1.24l1.51 1.71c-1.49.38-3.22.65-5.02.86v1.48h6.93v1.91h-4.9zm1.96 3.6a18.23 18.23 0 0 1-4-3.08v2.66h-2.23v-2.68a15.83 15.83 0 0 1-3.69 3.1h9.92zm-1.62 1.62h-6.79v.97h6.79v-.97zm0 3.42v-.99h-6.79v.99h6.79zm9.52-6.32c-.63-.59-1.96-1.35-3.03-1.82l1.15-1.6c1.08.38 2.43 1.06 3.12 1.64l-1.24 1.78zm5.91 4.66v1.3c0 .56.18.63 1.22.63h3.1c.86 0 .99-.23 1.1-1.84.41.32 1.3.63 1.85.74-.27 2.39-.85 2.97-2.79 2.97h-3.46c-2.38 0-3.04-.56-3.04-2.47v-3.01h4.92v-1.3h-3.8v-.61c-.74 1.06-1.6 2.02-2.52 2.68-.16-.23-.4-.54-.65-.81-.76 1.8-1.66 3.71-2.5 5.33l-1.91-1.26c.81-1.39 1.98-3.65 2.88-5.76l.95.72c1.13-.77 2.2-2 2.9-3.28h-2.74v-1.93h2.94v-1.37h-2.23v-1.8l-1.17 1.64c-.63-.61-1.98-1.42-3.06-1.89l1.21-1.62c1.04.43 2.43 1.15 3.11 1.75l-.02.02h2.16v-1.8h2.05v1.8h2.5v-1.8h2.11v1.8h2.32v1.91h-2.32v1.37h2.84v1.93h-2.68c.74 1.26 1.87 2.45 3.03 3.13-.49.4-1.17 1.15-1.5 1.69-.7-.49-1.37-1.17-1.96-1.95v3.08h-4.84zm3.82-4.63c-.25-.43-.47-.88-.67-1.33h-2.75c-.18.45-.41.9-.65 1.33h4.07zm-3.31-3.26h2.5v-1.37h-2.5v1.37z" fill="#fff"/><path d="M116 378H39v-32h77zm-68 0h12l-6 10-6-10z" fill="#8f5f3f"/><path d="M55.64 364.61c.65.45 2.14 1.64 2.56 1.96l-1.24 1.53c-.29-.36-.79-.9-1.31-1.4v3.83h-2.07v-3.62c-.7 1.01-1.51 1.91-2.29 2.54-.32-.47-.94-1.17-1.39-1.51 1.17-.77 2.41-2.12 3.24-3.47H50.4v-1.8h3.17v-1.39h-3.22v-1.76h1.66c-.07-.59-.29-1.39-.54-1.98l1.1-.25h-2.02v-1.75h3.03v-1.64h2.07v1.64h2.99v1.75h-1.86l1.04.2c-.32.77-.61 1.49-.86 2.04h1.82v1.76h-3.13v1.39h2.97v1.8h-2.97v.14zm-2.49-7.33c.31.61.54 1.44.61 1.98l-.9.25h3.53l-1.19-.25c.23-.54.52-1.37.67-1.98h-2.72zm13.79 4.38h-1.71v8.8h-2.07v-8.8h-1.84c-.02 2.68-.4 6.48-2.77 8.95-.27-.47-1.04-1.21-1.53-1.46 2.07-2.2 2.29-5.26 2.29-7.74v-6.25l1.26.36c1.71-.41 3.47-.99 4.57-1.58l1.71 1.57c-1.58.7-3.64 1.26-5.53 1.66v2.52h5.62v1.98zm10.12-4.69s0 .7-.02.97c-.16 7.67-.29 10.42-.85 11.25-.41.61-.79.79-1.39.92-.52.11-1.33.11-2.18.07-.04-.59-.23-1.53-.61-2.14.72.05 1.37.07 1.71.07.27 0 .43-.07.61-.32.34-.49.49-2.72.59-8.73H73.1c-.18 4.81-.81 8.84-3.13 11.51-.32-.52-1.03-1.24-1.57-1.57 2.02-2.29 2.5-5.73 2.63-9.94h-2.09v-2.09h2.11c.02-.96.02-1.95.02-2.97h2.11c0 1.01 0 2-.02 2.97h3.89zm7.53-1.17v14.26h-2.14v-1.12h-2.32v1.24h-2.07v-14.39h6.54zm-2.14 11.07v-9.02h-2.32v9.02h2.32zm20.8-5.79c-.54 2.45-1.48 4.41-2.77 5.94 1.03.76 2.2 1.33 3.56 1.71-.45.41-1.06 1.26-1.35 1.84a11.56 11.56 0 0 1-3.69-2.05c-1.01.83-2.18 1.49-3.44 2.02-.25-.52-.79-1.31-1.21-1.73 1.17-.38 2.25-.97 3.22-1.76-.9-1.08-1.6-2.36-2.16-3.83-.22 2.5-.9 5.37-2.75 7.29-.32-.41-1.15-1.15-1.58-1.4 1.1-1.12 1.67-2.52 2.02-3.94-1.82.9-3.78 1.82-5.35 2.52l-.83-2.09c.63-.22 1.37-.5 2.21-.85v-4.81h-1.94v-2.04h1.94v-3.91h2v3.91h1.85v2.04h-1.85v3.98l1.51-.63.47 1.76c.31-1.42.36-2.85.36-4.07v-4.81h3.91v-2.41h2.09v2.41h2.52l.31-.05 1.58.31c-.32 1.39-.77 2.94-1.19 3.91l-1.87-.41c.16-.47.32-1.1.49-1.76h-1.84v2.52h2.07l.36-.07 1.35.49zm-7.74-2.94v2.52h1.87v-2.52h-1.87zm1.6 4.39c.47 1.15 1.1 2.2 1.87 3.1.74-.88 1.33-1.93 1.75-3.1h-3.62z" fill="#fff"/><path d="M183 91h54v32h-54zm38.33 42l-6-10h12l-6 10z" fill="#8f5f3f"/><path d="M209.56 113.16h-2.95v2.03h-2v-2.03h-4.16v-.81h-2.7v2.84h-2.07v-2.84h-2.92v-1.89h2.92v-1.04h-2.34v-6.45h2.34v-1.04h-2.75v-1.87h2.75v-1.64h2.07v1.64h2.72v1.87h-2.72v1.04h2.38v6.45h-2.38v1.04h2.77v1.06h.86v-2.47h3.22v-.7h-3.37v-3.83h7.45v3.83h-2.09v.7h2.3v1.46h-2.3v1.01h2.95v1.64zm-14.35-7.63h2.95v-1.04h-2.95v1.04zm0 2.38h2.95v-1.04h-2.95v1.04zm14.33-3.96h-9.06v-1.64h2.07c.07-.32.14-.67.22-1.03h-1.44v-1.53h1.71c.07-.47.14-.92.2-1.33l1.98.13c-.05.38-.13.79-.2 1.21h3.19v2.56h1.33v1.64zm-4.93 7.58v-1.01h-1.42v1.01h1.42zm-1.39-4.54h3.38v-1.1h-3.38v1.1zm1.53-5.71c-.07.36-.14.7-.22 1.03h1.82v-1.03h-1.6zm22.48-2.11v16.11h-2.12v-.76h-11.2v.76h-2.03V99.17h15.36zm-2.12 13.45V101.1h-2.23c.58.29 1.19.7 1.51 1.04l-.72.76h.86v1.51h-3.22c.09 1.01.2 1.94.34 2.75.36-.7.63-1.44.85-2.25l1.64.32c-.43 1.57-1.08 2.93-1.89 4.12.23.54.5.88.83.95.2.07.34-.63.41-1.67.32.32.97.81 1.33 1.01-.29 2.21-1.22 2.9-2.41 2.36-.54-.18-.99-.59-1.35-1.19-.58.58-1.19 1.1-1.87 1.53-.23-.32-.81-1.01-1.17-1.3.2-.11.4-.23.58-.36-1.44.22-2.84.41-4.03.61l-.2-1.57c1.31-.14 3.19-.36 5.06-.61l.04.9c.32-.27.61-.58.9-.9-.38-1.3-.61-2.94-.77-4.72h-5v-1.51h4.88c-.04-.5-.05-1.01-.09-1.53h1.76c.02.52.04 1.03.07 1.53h1.94c-.38-.32-.92-.7-1.39-.95l.85-.85h-8.7v11.52h11.2zm-6.07-4.01h-4.01v-3.42h4.01v3.42zm-1.44-2.29h-1.21v1.15h1.21v-1.15z" fill="#fff"/><path d="M214 280.34h-54v-32h54zm-39-42.01l6 10h-12l6-10z" fill="#8f5f3f"/><path d="M180.29 257.88c1.78 1.46 3.92 3.53 4.84 5.08l-1.85 1.42c-.27-.49-.67-1.04-1.15-1.64-4.75.25-9.78.45-13.13.58l-.13-2.16c.83-.02 1.76-.05 2.77-.07 1.01-1.57 2.04-3.55 2.65-5.13l2.47.79c-.76 1.42-1.66 2.93-2.52 4.25 1.94-.07 4.03-.16 6.1-.25-.58-.58-1.17-1.12-1.73-1.6l1.67-1.26zm-9.51 7.08h11.99v7.9h-2.3v-.7h-7.49v.72h-2.2v-7.92zm2.2 2.04v3.11h7.49V267h-7.49zm16.31-2.65c-.52-.56-1.69-1.35-2.59-1.84l1.17-1.49c.92.43 2.09 1.13 2.68 1.69l-1.26 1.64zm.31-4.63c-.5-.59-1.62-1.42-2.52-1.96l1.22-1.46c.88.49 2.05 1.24 2.59 1.82l-1.3 1.6zm-2.49 11.9c.65-1.4 1.57-3.67 2.23-5.78l1.69 1.08c-.58 1.91-1.31 4.02-2.04 5.76l-1.89-1.06zm5.17-8.93c-.22.81-.54 1.69-.88 2.29-.27-.16-.81-.43-1.13-.56.41-.65.67-1.51.83-2.32l1.19.27v-.7c-.58.05-1.13.09-1.64.13l-.14-1.3 1.1-.04c.16-.2.34-.41.5-.63-.4-.43-.94-.92-1.42-1.28l.67-1.04c.09.05.2.13.29.18.31-.54.61-1.19.81-1.67l1.21.61c-.38.61-.77 1.24-1.12 1.76.13.13.27.23.38.36.29-.43.56-.83.76-1.19l1.08.61v-.31h4.3v.31l.47-.63.23.18c.31-.56.63-1.21.83-1.66l1.22.59c-.41.61-.83 1.28-1.21 1.8.14.13.27.27.38.4.36-.49.68-.95.92-1.37l1.19.67c-.59.74-1.28 1.57-1.93 2.27l.99-.02c-.09-.2-.18-.4-.27-.58l1.03-.41c.36.65.7 1.53.83 2.12l-1.08.47c-.02-.13-.05-.27-.09-.43l-.7.05v3.53h-1.37v-2.47c-.2.81-.52 1.67-.83 2.25-.22-.16-.65-.4-.97-.54v.59h-3.44v-2.7h3.44v1.78c.29-.59.49-1.31.63-1.98l1.17.27v-.67l-1.55.09-.13-1.3.85-.02c.14-.16.31-.36.47-.54-.27-.36-.67-.79-1.08-1.15v.2h-4.3v-.65c-.52.68-1.1 1.42-1.66 2.05l.77-.02c-.05-.16-.11-.32-.16-.47l.9-.32c.31.65.56 1.51.63 2.07l-.97.36c-.02-.14-.04-.31-.07-.49l-.56.05v3.58h-1.35v-2.47zm10.66 6.32s-.04.52-.11.77c-.29 1.44-.61 2.23-1.1 2.63-.45.34-.96.43-1.67.47-.58.02-1.67 0-2.79-.04-.04-.47-.27-1.12-.58-1.57 1.08.11 2.27.13 2.72.13.36 0 .58-.02.76-.14.2-.14.36-.43.52-.94h-7.09c-.05.18-.11.36-.16.52l-1.93-.25c.32-.92.67-2.25.88-3.37h7.69v-.56h-8.23v-1.21h10.21v2.99h-7.98l-.14.56h9zm-8.82-4.65c-.07-.52-.25-1.33-.43-1.96l1.03-.23c.2.59.4 1.39.49 1.89l-1.08.31zm4.57-3.94h-3.42v-.97h3.42v.97zm-3.42.41h3.42v.97h-3.42v-.97zm3.26-3.42h-3.13v-1.03h3.13v1.03zm-1.13 5.83h-.9v.79h.9v-.79zm5.6-1.15c.31.72.65 1.66.79 2.27l-1.12.38c-.13-.63-.43-1.58-.76-2.32l1.08-.32z" fill="#fff"/><path d="M287 207h-54v-32h54zm-39-42l6 10h-12l6-10z" fill="#8f5f3f"/><path d="M248.18 191.37h9.58v8.14h-2.07v-.68h-5.54v.7h-1.96v-6.66l-.85 1.15c-.31-.43-.85-1.08-1.37-1.66v7.2h-2.11v-5.98c-.59.58-1.21 1.08-1.82 1.49-.18-.58-.67-1.64-.99-2.03 1.78-1.1 3.51-2.99 4.57-5.04h-3.91v-1.93h2.14v-3.31h2.11v3.31h.74l.38-.09 1.17.76c-.45 1.3-1.1 2.54-1.84 3.69.49.38 1.26 1.04 1.76 1.49v-.56zm9.63-7.89v1.8h-9.74v-1.8h9.74zm-.85 2.57v4.5h-7.9v-4.5h7.9zm-6.82 7.02v1.19h1.78v-1.19h-1.78zm0 4.02h1.78v-1.22h-1.78v1.22zm4.84-9.43h-4.03v1.3h4.03v-1.3zm.7 5.42h-1.85v1.19h1.85v-1.19zm0 4.02v-1.22h-1.85v1.22h1.85zm20.24.14c0 1.06-.22 1.6-.88 1.96-.63.34-1.57.38-2.97.38-.09-.56-.4-1.46-.68-2 .83.05 1.75.05 2.04.04.29 0 .4-.09.4-.4v-11.59h-3.02l1.58.38c-.5.88-1.03 1.82-1.44 2.49h2.32v1.75h-4.12v4.2h1.46v-3.26h1.82v5.8h-1.82v-.77h-4.81v1.06H264v-6.09h1.8v3.26h1.42v-4.2h-3.87v-1.75h2c-.18-.68-.58-1.62-1.03-2.29l1.64-.58h-3.21v13.94h-2.09V183.6h15.27v13.65zm-6.75-9.06c.36-.7.79-1.75 1.04-2.56h-4.2c.54.74 1.01 1.76 1.19 2.47l-1.06.4h4.07l-1.04-.31z" fill="#fff"/></svg>
